<svg width="60" height="60" viewBox="0 0 60 60" fill="none" xmlns="http://www.w3.org/2000/svg">
<g clip-path="url(#clip0_777_937)">
<path d="M29.8769 20.027C30.4629 20.2999 31.1601 20.0467 31.4343 19.4599C31.7071 18.8739 31.4539 18.1768 30.8671 17.903C30.2812 17.6297 29.5844 17.8829 29.3102 18.4697C29.0369 19.0557 29.2901 19.7528 29.8769 20.027Z" fill="#D6AD60"/>
<path d="M59.9295 24.0761C59.8233 23.784 59.6049 23.546 59.3234 23.4146L21.0951 5.59065C18.1618 4.22194 14.6786 5.48765 13.3108 8.42283C13.1003 8.87419 9.68078 16.2071 9.34936 16.9175C7.98111 19.8518 9.24682 23.3349 12.1834 24.7032L22.3787 29.4575V36.1766H7.02987V35.0052C7.02987 33.067 5.45288 31.49 3.51517 31.49H1.17187C0.524597 31.49 0 32.0146 0 32.6619V53.7515C0 54.3983 0.524597 54.9229 1.17187 54.9229H3.51517C5.45288 54.9229 7.02987 53.3464 7.02987 51.4082V49.3441C7.02987 49.3441 26.5416 45.8912 26.5462 45.8903C28.2046 45.5763 29.4086 44.1233 29.4086 42.4356V40.2351C30.8372 39.4088 31.7518 37.8685 31.7518 36.1766V33.8287L40.664 37.9852C42.382 38.7849 44.4305 38.0735 45.2847 36.3821L49.2764 38.2438C49.8605 38.5162 50.5591 38.2658 50.8333 37.6771L54.3466 30.1442L57.5619 29.0881C57.8691 28.9874 58.1213 28.7636 58.2582 28.4706L59.8901 24.9719C60.0215 24.6904 60.0357 24.3681 59.9295 24.0761ZM4.68658 51.4082C4.68658 52.0541 4.16107 52.5796 3.51517 52.5796H2.34329V33.8333H3.51517C4.16107 33.8333 4.68658 34.3588 4.68658 35.0052V51.4082ZM27.0653 42.4356C27.0653 42.9963 26.6661 43.4797 26.1159 43.5868L7.02987 46.9647V38.5199H23.0067C23.833 39.949 25.3734 40.8632 27.0653 40.8632V42.4356ZM29.4086 36.1766C29.4086 37.4565 28.3717 38.5199 27.0653 38.5199C25.7854 38.5199 24.722 37.483 24.722 36.1766V30.5502L29.4086 32.736V36.1766ZM41.6542 35.8612L13.1731 22.5792C11.412 21.7589 10.6512 19.6696 11.4734 17.9077L11.9682 16.8466L44.6974 32.1084L43.2115 35.2935C42.9382 35.879 42.2392 36.1335 41.6542 35.8612ZM49.205 35.625L46.279 34.2604L47.0869 32.5277L51.2933 31.1467L49.205 35.625ZM56.3489 27.0204C56.3022 27.0355 46.3861 30.2916 46.3627 30.2993L12.9584 14.723L15.4349 9.41343C16.2547 7.65379 18.3435 6.89253 20.105 7.71421L57.2712 25.0433L56.3489 27.0204Z" fill="#D6AD60"/>
<path d="M18.691 13.5175C18.4172 14.1039 18.6713 14.8011 19.2577 15.0748L25.6288 18.0462C26.2134 18.3185 26.9115 18.0677 27.1861 17.4795C27.4594 16.8931 27.2058 16.1959 26.6194 15.9222L20.2478 12.9513C19.6614 12.6771 18.9643 12.9311 18.691 13.5175Z" fill="#D6AD60"/>
</g>
<defs>
<clipPath id="clip0_777_937">
<rect width="60" height="60" fill="white"/>
</clipPath>
</defs>
</svg>
