<svg width="60" height="60" viewBox="0 0 60 60" fill="none" xmlns="http://www.w3.org/2000/svg">
<g clip-path="url(#clip0_777_1149)">
<path d="M7.00329 60.0019H52.9999C54.6555 60.0001 55.9976 58.658 55.9994 57.002V22.5218C57.4976 22.9649 59.0923 22.2302 59.729 20.8039C60.3657 19.3772 59.848 17.6996 58.5178 16.8803L31.5627 0.445561C30.6051 -0.141705 29.3981 -0.142162 28.4401 0.445103L1.47851 16.8849C0.149729 17.7079 -0.365673 19.3863 0.2724 20.8131C0.910015 22.2398 2.50428 22.9754 4.00334 22.5351V57.002C4.00517 58.658 5.34723 60.0001 7.00329 60.0019ZM24.0019 58.0021H12.0031V38.0035H24.0019V58.0021ZM53.9996 57.002C53.9992 57.554 53.552 58.0017 52.9999 58.0021H26.0018V38.0035C26.0004 36.8995 25.106 36.0051 24.0019 36.0037H12.0031C10.899 36.0051 10.0042 36.8995 10.0032 38.0035V58.0021H7.00329C6.45127 58.0017 6.00407 57.554 6.00361 57.002V21.4438L29.4814 7.15036C29.8009 6.95537 30.2028 6.95537 30.5223 7.15036L53.9996 21.4443V57.002ZM3.71818 20.4945C3.19271 20.8149 2.50657 20.6529 2.17975 20.1306C1.85339 19.6083 2.00765 18.9208 2.52625 18.5881L29.4814 2.15243C29.8009 1.95698 30.2032 1.95698 30.5223 2.15289L57.4706 18.584C57.9718 18.898 58.1439 19.547 57.8638 20.0684C57.7196 20.343 57.4664 20.5444 57.1666 20.624C56.8645 20.7055 56.5418 20.657 56.2768 20.4899L31.5613 5.44212C30.6042 4.85714 29.3999 4.85714 28.4424 5.44212H28.4414L3.71818 20.4945Z" fill="#D6AD60"/>
<path d="M16.0027 46.0028H20.0024C21.1064 46.0015 22.0008 45.1066 22.0022 44.0026V42.0027C22.0008 40.8992 21.1064 40.0043 20.0024 40.0029H16.0027C14.8987 40.0043 14.0043 40.8992 14.0029 42.0027V44.0026C14.0043 45.1066 14.8987 46.0015 16.0027 46.0028ZM16.0027 42.0027H20.0024L20.0033 44.0026H16.0027V42.0027Z" fill="#D6AD60"/>
<path d="M15.0026 50.0027V51.0024C15.0026 51.5549 15.4503 52.0026 16.0027 52.0026C16.5548 52.0026 17.0024 51.5549 17.0024 51.0024V50.0027C17.5549 50.0027 18.0026 49.5551 18.0026 49.0026C18.0026 48.4506 17.5549 48.0029 17.0024 48.0029H15.0026C14.4506 48.0029 14.0029 48.4506 14.0029 49.0026C14.0029 49.5551 14.4506 50.0027 15.0026 50.0027Z" fill="#D6AD60"/>
<path d="M24.0801 17.0774C21.5489 17.4692 19.5463 19.4251 19.0936 21.9458C18.6414 24.4665 19.8388 26.9969 22.0753 28.2446C24.3122 29.4924 27.0943 29.1825 29.0016 27.4733V31.0047H28.0015C27.4495 31.0047 27.0018 31.4524 27.0018 32.0044C27.0018 32.5569 27.4495 33.0045 28.0015 33.0045H32.0011C32.5536 33.0045 33.0013 32.5569 33.0013 32.0044C33.0013 31.4524 32.5536 31.0047 32.0011 31.0047H31.0014V27.4743C32.9074 29.1825 35.6872 29.4928 37.9232 28.2469C40.1587 27.001 41.3575 24.4739 40.9071 21.9541C40.4572 19.4347 38.4574 17.4784 35.9289 17.0838C35.4766 14.1626 32.9628 12.0067 30.0068 12.0049C27.0508 12.0035 24.5347 14.1567 24.0797 17.0774H24.0801ZM33.9533 17.3965C34.0929 18.2501 34.764 18.918 35.6181 19.0539C37.3282 19.3249 38.6698 20.6651 38.9426 22.3752C39.2149 24.0848 38.3562 25.7761 36.8155 26.5652C35.2743 27.3543 33.4004 27.0623 32.1723 25.842C31.6043 25.2557 30.8234 24.9238 30.0068 24.9224C29.1907 24.9211 28.4084 25.2497 27.8385 25.8342C26.6123 27.0632 24.7333 27.3621 23.1866 26.5735C21.6395 25.7843 20.7781 24.0884 21.0527 22.3738C21.3278 20.6596 22.6767 19.318 24.3923 19.0525C25.2464 18.9134 25.9152 18.2419 26.0507 17.3873C26.3546 15.4392 28.034 14.0033 30.0059 14.0056C31.9778 14.0079 33.6535 15.4475 33.9533 17.3965Z" fill="#D6AD60"/>
<path d="M32.001 38.0037V48.0032H31.0014C30.4489 48.0032 30.0012 48.4509 30.0012 49.0029C30.0012 49.5554 30.4489 50.0031 31.0014 50.0031H48.9997C49.5522 50.0031 49.9998 49.5554 49.9998 49.0029C49.9998 48.4509 49.5522 48.0032 48.9997 48.0032H48V38.0037C47.9986 36.8997 47.1042 36.0053 46.0002 36.0039H34.0008C32.8973 36.0053 32.0024 36.8997 32.001 38.0037ZM39.0006 48.0032H34.0008V44.0032H39.0006V48.0032ZM41.0004 44.0032H43.0002C43.5527 44.0032 44.0004 43.5555 44.0004 43.0035C44.0004 42.451 43.5527 42.0033 43.0002 42.0033H41.0004V38.0037H46.0002V48.0032H41.0004V44.0032ZM39.0006 42.0033H34.0008V38.0037H39.0006V42.0033Z" fill="#D6AD60"/>
</g>
<defs>
<clipPath id="clip0_777_1149">
<rect width="60" height="60" fill="white"/>
</clipPath>
</defs>
</svg>
