<svg width="60" height="60" viewBox="0 0 60 60" fill="none" xmlns="http://www.w3.org/2000/svg">
<g clip-path="url(#clip0_777_941)">
<path d="M57.1875 16.875H51.5625C51.3139 16.875 51.0754 16.7762 50.8996 16.6004C50.7238 16.4246 50.625 16.1861 50.625 15.9375V0.9375C50.625 0.68886 50.7238 0.450403 50.8996 0.274587C51.0754 0.0987721 51.3139 0 51.5625 0L57.1875 0C57.4361 0 57.6746 0.0987721 57.8504 0.274587C58.0262 0.450403 58.125 0.68886 58.125 0.9375V15.9375C58.125 16.1861 58.0262 16.4246 57.8504 16.6004C57.6746 16.7762 57.4361 16.875 57.1875 16.875ZM52.5 15H56.25V1.875H52.5V15Z" fill="#D6AD60"/>
<path d="M57.1875 7.5H59.0625V9.375H57.1875V7.5Z" fill="#D6AD60"/>
<path d="M53.4375 13.125H55.3125V15.9375H53.4375V13.125Z" fill="#D6AD60"/>
<path d="M53.4375 0.9375H55.3125V11.25H53.4375V0.9375Z" fill="#D6AD60"/>
<path d="M8.4375 16.875H2.8125C2.56386 16.875 2.3254 16.7762 2.14959 16.6004C1.97377 16.4246 1.875 16.1861 1.875 15.9375V0.9375C1.875 0.68886 1.97377 0.450403 2.14959 0.274587C2.3254 0.0987721 2.56386 0 2.8125 0L8.4375 0C8.68614 0 8.9246 0.0987721 9.10041 0.274587C9.27623 0.450403 9.375 0.68886 9.375 0.9375V15.9375C9.375 16.1861 9.27623 16.4246 9.10041 16.6004C8.9246 16.7762 8.68614 16.875 8.4375 16.875ZM3.75 15H7.5V1.875H3.75V15Z" fill="#D6AD60"/>
<path d="M0.9375 7.5H2.8125V9.375H0.9375V7.5Z" fill="#D6AD60"/>
<path d="M4.6875 5.625H6.5625V15.9375H4.6875V5.625Z" fill="#D6AD60"/>
<path d="M4.6875 0.9375H6.5625V3.75H4.6875V0.9375Z" fill="#D6AD60"/>
<path d="M40.3125 26.25H38.4375V22.5C38.4375 20.2622 37.5486 18.1161 35.9662 16.5338C34.3839 14.9514 32.2378 14.0625 30 14.0625C27.7622 14.0625 25.6161 14.9514 24.0338 16.5338C22.4514 18.1161 21.5625 20.2622 21.5625 22.5V26.25H19.6875V22.5C19.6875 19.765 20.774 17.1419 22.708 15.208C24.6419 13.274 27.265 12.1875 30 12.1875C32.735 12.1875 35.3581 13.274 37.292 15.208C39.226 17.1419 40.3125 19.765 40.3125 22.5V26.25Z" fill="#D6AD60"/>
<path d="M36.5625 30V28.125C37.5787 28.125 38.4375 27.481 38.4375 26.7188V25.9378C38.4375 25.6425 38.0522 25.3125 37.5 25.3125H36.5625V23.4375H37.5C38.2037 23.3993 38.8941 23.6406 39.4209 24.1088C39.9476 24.5771 40.2681 25.2345 40.3125 25.9378V26.7188C40.2454 27.6493 39.8139 28.5157 39.1118 29.1301C38.4097 29.7444 37.4937 30.057 36.5625 30Z" fill="#D6AD60"/>
<path d="M23.4375 30C22.5063 30.057 21.5903 29.7444 20.8882 29.1301C20.1861 28.5157 19.7546 27.6493 19.6875 26.7188V25.9378C19.7319 25.2345 20.0524 24.5771 20.5791 24.1088C21.1059 23.6406 21.7963 23.3993 22.5 23.4375H23.4375V25.3125H22.5C21.9478 25.3125 21.5625 25.6425 21.5625 25.9378V26.7188C21.5625 27.481 22.4213 28.125 23.4375 28.125V30Z" fill="#D6AD60"/>
<path d="M30.0001 36.5625C27.9748 36.5216 26.0484 35.6798 24.6426 34.2213C23.2369 32.7628 22.4664 30.8067 22.5001 28.7813V23.4375C22.5001 23.1889 22.5989 22.9504 22.7747 22.7746C22.9505 22.5988 23.1889 22.5 23.4376 22.5C29.1816 22.5 30.616 21.495 32.1498 19.9622C32.254 19.8561 32.3824 19.7768 32.5239 19.7311C32.6655 19.6854 32.816 19.6746 32.9626 19.6997C33.1094 19.7234 33.2484 19.7817 33.3682 19.8697C33.488 19.9577 33.5852 20.073 33.6516 20.206C34.4232 21.75 35.3748 22.5 36.5626 22.5C36.8112 22.5 37.0497 22.5988 37.2255 22.7746C37.4013 22.9504 37.5001 23.1889 37.5001 23.4375V28.7813C37.5337 30.8067 36.7633 32.7628 35.3576 34.2213C33.9518 35.6798 32.0253 36.5216 30.0001 36.5625ZM24.3751 24.3657V28.7813C24.3411 30.3095 24.9138 31.789 25.968 32.8959C27.0223 34.0028 28.472 34.647 30.0001 34.6875C31.5281 34.647 32.9779 34.0028 34.0321 32.8959C35.0863 31.789 35.6591 30.3095 35.6251 28.7813V24.2813C34.3684 23.9807 33.28 23.1986 32.5941 22.1035C30.8598 23.5397 28.8057 24.2813 24.3751 24.3657Z" fill="#D6AD60"/>
<path d="M26.6672 38.28L18.2297 32.655C18.0284 32.521 17.8866 32.3145 17.8341 32.0784L15.9591 23.6409C15.9373 23.5463 15.9301 23.449 15.9375 23.3522L16.875 13.0397C16.8874 12.9088 16.9272 12.782 16.9918 12.6675C17.0564 12.5529 17.1444 12.4533 17.25 12.375L20.625 9.84375V7.03125C20.625 6.90693 20.5756 6.7877 20.4877 6.69979C20.3998 6.61189 20.2806 6.5625 20.1562 6.5625C20.0319 6.5625 19.9127 6.61189 19.8248 6.69979C19.7369 6.7877 19.6875 6.90693 19.6875 7.03125V8.4375C19.6875 8.68614 19.5887 8.9246 19.4129 9.10041C19.2371 9.27623 18.9986 9.375 18.75 9.375H12.1875V7.5H17.8125V7.03125C17.8125 6.40965 18.0594 5.81351 18.499 5.37397C18.9385 4.93443 19.5346 4.6875 20.1562 4.6875C20.7779 4.6875 21.374 4.93443 21.8135 5.37397C22.2531 5.81351 22.5 6.40965 22.5 7.03125V10.3125C22.5 10.458 22.4661 10.6016 22.401 10.7318C22.3359 10.8619 22.2414 10.9752 22.125 11.0625L18.7087 13.6247L17.8219 23.3747L19.5834 31.3013L27.7078 36.7172L26.6672 38.28Z" fill="#D6AD60"/>
<path d="M40.3125 59.9995H19.6875C19.4761 59.9997 19.2709 59.9283 19.1051 59.7971C18.9393 59.6659 18.8228 59.4825 18.7744 59.2767L15.0638 43.4995L14.0231 41.9386C12.2245 39.2343 11.097 36.1399 10.7344 32.9123C10.4539 30.3808 10.313 27.8357 10.3125 25.2886V23.437L11.0756 11.1914L12.9506 11.3077L12.1884 23.4952V25.2886C12.1889 27.768 12.326 30.2455 12.5991 32.7098C12.9278 35.6394 13.9512 38.4482 15.5841 40.9027L16.7184 42.6042C16.7802 42.6976 16.8252 42.801 16.8516 42.9098L20.43 58.1245H39.57L43.1494 42.9098C43.1757 42.801 43.2207 42.6976 43.2825 42.6042L44.4169 40.9027C46.0497 38.4482 47.0731 35.6394 47.4019 32.7098C47.675 30.2455 47.8121 27.768 47.8125 25.2886V23.437L47.0522 11.3077L48.9272 11.1914L49.6884 23.3789V25.2886C49.688 27.8369 49.5472 30.3833 49.2666 32.9161C48.9039 36.1436 47.7765 39.238 45.9778 41.9423L44.9363 43.4995L41.2256 59.2767C41.1772 59.4825 41.0607 59.6659 40.8949 59.7971C40.7292 59.9283 40.5239 59.9997 40.3125 59.9995Z" fill="#D6AD60"/>
<path d="M33.3329 38.28L32.2922 36.72L40.4166 31.3041L42.1782 23.3775L41.2913 13.6275L37.8751 11.0625C37.7586 10.9752 37.6641 10.8619 37.599 10.7318C37.5339 10.6016 37.5 10.458 37.5 10.3125V7.03125C37.5 6.40965 37.747 5.81351 38.1865 5.37397C38.6261 4.93443 39.2222 4.6875 39.8438 4.6875C40.4654 4.6875 41.0615 4.93443 41.5011 5.37397C41.9406 5.81351 42.1875 6.40965 42.1875 7.03125V7.5H47.8125V9.375H41.25C41.0014 9.375 40.763 9.27623 40.5871 9.10041C40.4113 8.9246 40.3125 8.68614 40.3125 8.4375V7.03125C40.3125 6.90693 40.2632 6.7877 40.1753 6.69979C40.0873 6.61189 39.9681 6.5625 39.8438 6.5625C39.7195 6.5625 39.6003 6.61189 39.5123 6.69979C39.4244 6.7877 39.375 6.90693 39.375 7.03125V9.84375L42.75 12.375C42.8557 12.4533 42.9436 12.5529 43.0082 12.6675C43.0728 12.782 43.1126 12.9088 43.125 13.0397L44.0625 23.3522C44.0712 23.4488 44.0652 23.5461 44.0447 23.6409L42.1697 32.0784C42.1172 32.3145 41.9754 32.521 41.7741 32.655L33.3329 38.28Z" fill="#D6AD60"/>
<path d="M30 42.1875C29.0054 42.1875 28.0516 41.7924 27.3484 41.0891C26.6451 40.3859 26.25 39.4321 26.25 38.4375V34.6875H28.125V38.4375C28.125 38.9348 28.3225 39.4117 28.6742 39.7633C29.0258 40.115 29.5027 40.3125 30 40.3125C30.4973 40.3125 30.9742 40.115 31.3258 39.7633C31.6775 39.4117 31.875 38.9348 31.875 38.4375V34.6875H33.75V38.4375C33.75 39.4321 33.3549 40.3859 32.6516 41.0891C31.9484 41.7924 30.9946 42.1875 30 42.1875Z" fill="#D6AD60"/>
<path d="M38.4375 43.1247H36.5625C36.5625 36.656 39.4687 32.3313 40.5872 31.2119L41.9128 32.5375C41.0109 33.4394 38.4375 37.3197 38.4375 43.1247Z" fill="#D6AD60"/>
<path d="M42.1875 43.125H40.3125C40.3125 40.1897 41.7141 38.4375 44.0625 38.4375V40.3125C43.5984 40.3125 42.1875 40.3125 42.1875 43.125Z" fill="#D6AD60"/>
<path d="M41.25 54.375C37.5422 54.375 36.5625 50.0822 36.5625 47.8125V46.875H38.4375V47.8125C38.4375 47.8584 38.4844 52.5 41.25 52.5V54.375Z" fill="#D6AD60"/>
<path d="M38.4375 45.0003H36.5625V43.2406L34.7156 35.8522L36.5343 35.3984L38.4093 42.8984C38.4281 42.9726 38.4375 43.0488 38.4375 43.1253V45.0003Z" fill="#D6AD60"/>
<path d="M23.4375 43.1247H21.5625C21.5625 37.3197 18.989 33.4394 18.0872 32.5375L19.4128 31.2119C20.5312 32.3313 23.4375 36.656 23.4375 43.1247Z" fill="#D6AD60"/>
<path d="M19.6875 43.125H17.8125C17.8125 40.3125 16.4062 40.3125 15.9375 40.3125V38.4375C18.2859 38.4375 19.6875 40.1897 19.6875 43.125Z" fill="#D6AD60"/>
<path d="M18.75 54.375V52.5C21.5156 52.5 21.5625 47.8584 21.5625 47.8125V46.875H23.4375V47.8125C23.4375 50.0822 22.4578 54.375 18.75 54.375Z" fill="#D6AD60"/>
<path d="M23.4375 45.0003H21.5625V43.1253C21.5624 43.0488 21.5719 42.9726 21.5906 42.8984L23.4656 35.3984L25.2844 35.8522L23.4375 43.2406V45.0003Z" fill="#D6AD60"/>
<path d="M48.75 8.4375H46.875V4.6875C46.875 4.43886 46.7762 4.2004 46.6004 4.02459C46.4246 3.84877 46.1861 3.75 45.9375 3.75H43.125C42.8764 3.75 42.6379 3.84877 42.4621 4.02459C42.2863 4.2004 42.1875 4.43886 42.1875 4.6875V6.5625H40.3125V4.6875C40.3125 3.94158 40.6088 3.22621 41.1363 2.69876C41.6637 2.17132 42.3791 1.875 43.125 1.875H45.9375C46.6834 1.875 47.3988 2.17132 47.9262 2.69876C48.4537 3.22621 48.75 3.94158 48.75 4.6875V8.4375Z" fill="#D6AD60"/>
<path d="M13.125 8.4375H11.25V4.6875C11.25 3.94158 11.5463 3.22621 12.0738 2.69876C12.6012 2.17132 13.3166 1.875 14.0625 1.875H16.875C17.6209 1.875 18.3363 2.17132 18.8637 2.69876C19.3912 3.22621 19.6875 3.94158 19.6875 4.6875V6.5625H17.8125V4.6875C17.8125 4.43886 17.7137 4.2004 17.5379 4.02459C17.3621 3.84877 17.1236 3.75 16.875 3.75H14.0625C13.8139 3.75 13.5754 3.84877 13.3996 4.02459C13.2238 4.2004 13.125 4.43886 13.125 4.6875V8.4375Z" fill="#D6AD60"/>
<path d="M8.4375 7.5H12.1875V9.375H8.4375V7.5Z" fill="#D6AD60"/>
<path d="M47.8125 7.5H51.5625V9.375H47.8125V7.5Z" fill="#D6AD60"/>
<path d="M21.5625 7.5H38.4375V9.375H21.5625V7.5Z" fill="#D6AD60"/>
</g>
<defs>
<clipPath id="clip0_777_941">
<rect width="60" height="60" fill="white"/>
</clipPath>
</defs>
</svg>
