<svg width="60" height="60" viewBox="0 0 60 60" fill="none" xmlns="http://www.w3.org/2000/svg">
<g clip-path="url(#clip0_777_903)">
<path d="M35.1915 12.9961C35.0743 12.9961 34.9688 12.9609 34.8634 12.9023L31.7696 10.8516C31.5587 10.7109 31.4649 10.4648 31.5235 10.2188L32.0391 8.16797L33.1759 8.46094L32.754 10.1016L34.9102 11.5313L35.8126 9.375L36.8907 9.83203L35.7071 12.6328C35.6368 12.7969 35.5079 12.9141 35.3321 12.9609C35.3087 12.9961 35.2501 12.9961 35.1915 12.9961Z" fill="#D6AD60"/>
<path d="M39.3867 11.1094C39.375 11.1094 39.375 11.1094 39.3633 11.1094C39.0821 11.0977 36.6094 10.9922 35.6367 10.0195C35.0274 9.41016 34.5938 8.53125 34.3594 7.96875C34.2305 7.96875 34.0899 7.95703 33.9492 7.91016C33.3867 7.72266 32.9531 7.14844 32.6719 6.1875C32.2149 4.64062 33.0469 4.11328 33.3164 3.99609C33.7969 3.77344 34.3828 3.84375 34.8633 4.125L35.8242 2.63672C35.9297 2.46094 36.1289 2.36719 36.3281 2.36719L39.2344 2.42578C39.4219 2.42578 39.586 2.51953 39.6914 2.67187C39.7969 2.82422 39.8321 3.01172 39.7735 3.1875C39.7617 3.22266 39.0703 5.56641 40.3946 6.22266C40.6289 6.33984 40.7578 6.59766 40.711 6.86719L39.961 10.6406C39.9024 10.9102 39.6563 11.1094 39.3867 11.1094ZM34.711 6.65625C34.7696 6.65625 34.8164 6.66797 34.875 6.67969C35.0625 6.72656 35.2031 6.89063 35.2617 7.07813C35.2617 7.08984 35.7305 8.46094 36.4571 9.1875C36.8672 9.59766 38.0742 9.82031 38.9063 9.90234L39.4805 7.01953C38.2969 6.14063 38.3438 4.52344 38.4844 3.58594L36.6211 3.55078L35.4727 5.35547C35.3672 5.51953 35.1797 5.63672 34.9805 5.63672C34.7813 5.63672 34.5938 5.51953 34.4883 5.35547C34.336 5.12109 33.961 4.99219 33.7969 5.07422C33.6914 5.12109 33.6563 5.41406 33.7852 5.87109C33.9844 6.52734 34.1953 6.77344 34.3008 6.80859C34.3242 6.82031 34.3477 6.80859 34.3594 6.79687C34.4649 6.70312 34.5821 6.65625 34.711 6.65625Z" fill="#D6AD60"/>
<path d="M32.625 8.90644C32.6133 8.90644 32.5899 8.90644 32.5781 8.90644C32.4141 8.89472 32.25 8.80097 32.1563 8.66035C32.0977 8.59003 30.8438 6.84394 30.3164 5.21503C29.8125 3.70332 30.2461 2.66035 30.6914 2.03925C31.8164 0.515815 34.2656 -0.0115283 36.0352 0.000190484C39.3281 0.0353467 40.9922 1.45332 41.0625 1.51191C41.1914 1.6291 41.2617 1.78144 41.2617 1.95722C41.2617 2.508 40.8399 3.55097 39.2344 3.59785L39.1992 2.42597C39.6445 2.41425 39.8672 2.29707 39.9727 2.17988C39.4102 1.82832 38.086 1.1955 36.0234 1.17207C34.4297 1.14863 32.4492 1.64082 31.6406 2.74238C31.2188 3.3166 31.1485 4.008 31.4297 4.85175C31.7344 5.77753 32.332 6.79707 32.7305 7.40644L33.4102 6.75019L34.2188 7.59394L33.0352 8.73066C32.918 8.84785 32.7774 8.90644 32.625 8.90644Z" fill="#D6AD60"/>
<path d="M38.1329 23.9533C37.9806 23.9533 37.8634 23.9299 37.7579 23.883C36.4689 23.3908 31.4181 17.4025 30.9259 14.133C30.7501 12.926 31.1954 12.2814 31.6056 11.965C32.297 11.426 33.0587 11.2267 33.8439 11.3908C36.1173 11.8478 38.0157 15.2346 39.0353 17.0627C39.1993 17.3439 39.3751 17.6603 39.4806 17.8478C40.2071 17.6721 42.3986 16.4533 44.2384 15.2931C46.0079 12.4338 46.6642 12.4338 46.9103 12.4338C47.7071 12.4338 49.0314 13.9806 49.4767 15.0002C49.8986 15.9494 49.6642 16.5002 49.3829 16.8049C48.5978 17.6603 46.6173 18.258 46.0314 18.4221C45.6329 18.7736 44.215 20.051 42.6915 21.258C39.961 23.4377 38.7892 23.9533 38.1329 23.9533ZM32.3321 12.9025C32.2501 12.9728 31.9806 13.1721 32.086 13.9338C32.2501 15.1642 33.2931 17.1213 34.9571 19.3244C36.4923 21.3517 37.8048 22.6174 38.1564 22.7931C38.297 22.7931 39.129 22.6291 42.129 20.2267C43.8165 18.8674 45.3517 17.4846 45.3634 17.4728C45.4337 17.4142 45.5157 17.3674 45.6095 17.3439C46.4884 17.1096 48.0587 16.5588 48.5392 16.0314C48.5509 16.008 48.5743 15.8908 48.4689 15.6213C48.1759 14.8244 47.3204 13.9221 46.9454 13.676C46.5939 13.9689 45.8321 15.0002 45.1876 16.0431C45.1407 16.1252 45.0821 16.1838 45.0001 16.2306C44.9884 16.2424 43.7345 17.0275 42.4337 17.7541C39.7032 19.2775 39.211 19.1838 38.836 18.8908C38.6368 18.7385 38.4845 18.4689 38.0275 17.6486C37.1603 16.1135 35.3673 12.9025 33.6212 12.551C33.1759 12.4572 32.754 12.5744 32.3321 12.9025Z" fill="#D6AD60"/>
<path d="M34.9102 27.4687C34.875 27.4687 34.8399 27.4688 34.8047 27.457L27.0117 26.0273C26.836 25.9922 26.6836 25.8867 26.6016 25.7227C26.5196 25.5703 26.5078 25.3828 26.5782 25.2188C27.5742 22.9336 27.7735 20.5898 27.9727 18.3164C28.2657 14.8594 28.5469 11.6016 31.8282 9.85547L32.3789 10.8867C29.6602 12.3281 29.4375 15.0234 29.1446 18.4219C28.9688 20.4727 28.7696 22.7695 27.9375 25.0195L34.4532 26.2148C34.6524 25.1953 34.8047 24.2578 34.9102 23.4141L36.0703 23.5664C35.9414 24.5742 35.7422 25.7344 35.4844 27C35.4258 27.2812 35.1797 27.4687 34.9102 27.4687Z" fill="#D6AD60"/>
<path d="M37.9541 16.8379L38.9162 17.507L36.1527 21.4805L35.1906 20.8114L37.9541 16.8379Z" fill="#D6AD60"/>
<path d="M28.1602 37.6523C28.0899 37.6523 28.0078 37.6406 27.9375 37.6055L22.5352 35.3555C22.2539 35.2383 22.1133 34.9336 22.1953 34.6523C22.2774 34.3828 24.1875 27.9023 26.6836 25.0664L27.5625 25.8398C25.6172 28.043 23.9766 32.9063 23.4727 34.4766L28.0078 36.3633L30.9024 33.2344C31.043 33.082 31.2422 33.0234 31.4414 33.0586L36.0586 33.9727L38.2266 29.8359L34.5703 27.3516L35.2266 26.3789L39.3164 29.1563C39.5625 29.3203 39.6445 29.6484 39.5039 29.918L36.8789 34.8984C36.7617 35.1328 36.5039 35.25 36.2461 35.2031L31.5235 34.2656L28.5703 37.4531C28.4766 37.582 28.3125 37.6523 28.1602 37.6523Z" fill="#D6AD60"/>
<path d="M42.0001 52.7461C41.918 52.7461 41.836 52.7227 41.754 52.6875L34.8165 49.4883C34.6407 49.4062 34.5118 49.2422 34.4884 49.0547C34.1368 47.0508 36.0235 45.2344 36.6446 44.6953C36.7852 43.5469 37.4766 38.6484 38.918 36.0352L36.211 35.1797L36.5626 34.0664L40.0079 35.1445C40.1837 35.2031 40.336 35.3438 40.3946 35.5195C40.4532 35.6953 40.418 35.8945 40.3009 36.0469C38.5782 38.3438 37.8048 44.9883 37.793 45.0586C37.7696 45.2109 37.6993 45.3633 37.5704 45.457C36.9962 45.9023 35.6251 47.2617 35.6251 48.5508L41.918 51.4453C42.129 51.2344 42.2462 51.0469 42.2462 50.8945C42.2462 50.5195 41.5548 49.9805 40.9454 49.5C39.8087 48.6211 38.2618 47.4141 38.9532 45.5742C38.9532 45.5625 38.9649 45.5508 38.9766 45.5273L44.168 34.5234C43.3946 33.7383 41.086 31.5117 38.7188 30.1289L39.3048 29.1211C42.3516 30.9023 45.1759 33.8789 45.3048 34.0078C45.4688 34.1836 45.5157 34.4414 45.4102 34.6641L40.0548 46.0078C39.7032 46.957 40.4415 47.6133 41.672 48.5742C42.5743 49.2773 43.4298 49.9336 43.4298 50.8945C43.4298 51.4922 43.0899 52.043 42.3868 52.6055C42.2579 52.7109 42.129 52.7461 42.0001 52.7461Z" fill="#D6AD60"/>
<path d="M17.1563 60C17.0508 60 16.9336 59.9648 16.8399 59.9063L10.5586 55.9336C10.3594 55.8047 10.254 55.5703 10.3008 55.3359C10.7461 52.9102 12.6211 51.6797 13.3126 51.3047C13.8868 49.4062 15.9727 42.668 16.5586 41.8008C17.1446 40.9219 19.4297 39.5039 20.1797 39.0469L21.211 36.8086L22.2774 37.3008L21.1758 39.7031C21.129 39.8086 21.0469 39.9023 20.9415 39.9609C19.8282 40.6172 17.9063 41.8828 17.5313 42.4453C17.1797 42.9727 15.6329 47.6953 14.3555 51.8789C14.3086 52.043 14.1915 52.1719 14.0274 52.2422C14.004 52.2539 12.1055 53.1328 11.5313 55.1602L17.168 58.7227C17.4141 58.5586 17.5665 58.3828 17.6016 58.2187C17.7071 57.7383 17.0977 56.9297 16.5586 56.2266C15.7032 55.1016 14.6368 53.6953 15.4336 52.3242C15.4454 52.3125 15.4454 52.3008 15.4571 52.2891L23.1446 41.1094C23.2032 41.0273 23.2735 40.957 23.3672 40.9102L24.8321 40.1953L27.7149 36.6914L28.6172 37.4414L25.6524 41.0391C25.5938 41.0977 25.5352 41.1562 25.4649 41.1914L24.0235 41.8945L16.4415 52.9219C16.0782 53.5664 16.629 54.375 17.4961 55.5117C18.2227 56.4727 18.9844 57.4687 18.7501 58.4766C18.6094 59.0742 18.1758 59.543 17.4258 59.9297C17.3321 59.9766 17.2383 60 17.1563 60Z" fill="#D6AD60"/>
<path d="M27.5274 23.4375C27.4922 23.4023 26.6367 22.6055 25.793 21.6445C24.1524 19.7813 24.0235 19.0078 24.0821 18.5391C24.1172 18.2695 24.211 17.625 27.0703 14.4375C28.4297 12.9141 29.8008 11.5313 29.8125 11.5078L30.6446 12.3281C28.1485 14.8828 25.3711 18.0352 25.2305 18.7031C25.1836 19.1836 26.625 20.9883 28.3125 22.5703L27.5274 23.4375Z" fill="#D6AD60"/>
<path d="M26.157 16.376L28.8723 18.4218L28.1669 19.3582L25.4515 17.3123L26.157 16.376Z" fill="#D6AD60"/>
<path d="M13.9941 51.1914L16.1466 52.0916L15.6943 53.1732L13.5418 52.273L13.9941 51.1914Z" fill="#D6AD60"/>
<path d="M37.3882 44.4365L39.6805 45.2273L39.2985 46.3348L37.0062 45.5439L37.3882 44.4365Z" fill="#D6AD60"/>
</g>
<defs>
<clipPath id="clip0_777_903">
<rect width="60" height="60" fill="white"/>
</clipPath>
</defs>
</svg>
