<svg width="40" height="40" viewBox="0 0 40 40" fill="none" xmlns="http://www.w3.org/2000/svg">
<rect x="0.5" y="0.5" width="39" height="39" rx="19.5" fill="#122620"/>
<rect x="0.5" y="0.5" width="39" height="39" rx="19.5" stroke="#D6AD60"/>
<path d="M27 21H15.14L18.77 25.36C18.854 25.4611 18.9174 25.5778 18.9563 25.7034C18.9953 25.829 19.0091 25.961 18.997 26.0919C18.9726 26.3564 18.8442 26.6003 18.64 26.77C18.4358 26.9397 18.1725 27.0214 17.9081 26.997C17.6437 26.9726 17.3997 26.8442 17.23 26.64L12.23 20.64C12.1964 20.5923 12.1663 20.5421 12.14 20.49C12.14 20.44 12.09 20.41 12.07 20.36C12.0247 20.2453 12.0009 20.1233 12 20C12.0009 19.8767 12.0247 19.7547 12.07 19.64C12.07 19.59 12.12 19.56 12.14 19.51C12.1663 19.4579 12.1964 19.4077 12.23 19.36L17.23 13.36C17.324 13.2471 17.4418 13.1563 17.5748 13.0941C17.7079 13.0319 17.8531 12.9998 18 13C18.2337 12.9995 18.4601 13.0809 18.64 13.23C18.7413 13.314 18.825 13.4171 18.8863 13.5334C18.9477 13.6497 18.9855 13.7771 18.9975 13.908C19.0096 14.039 18.9957 14.1711 18.9567 14.2967C18.9176 14.4223 18.8542 14.539 18.77 14.64L15.14 19H27C27.2652 19 27.5196 19.1054 27.7071 19.2929C27.8946 19.4804 28 19.7348 28 20C28 20.2652 27.8946 20.5196 27.7071 20.7071C27.5196 20.8946 27.2652 21 27 21Z" fill="#D6AD60"/>
</svg>
