<svg width="40" height="40" viewBox="0 0 40 40" fill="none" xmlns="http://www.w3.org/2000/svg">
<rect width="40" height="40" rx="20" fill="#122620" fill-opacity="0.3"/>
<rect x="0.5" y="0.5" width="39" height="39" rx="19.5" stroke="#D6AD60" stroke-opacity="0.3"/>
<path d="M27 19.0012H15.14L18.77 14.6412C18.854 14.5401 18.9174 14.4235 18.9563 14.2979C18.9953 14.1723 19.0091 14.0403 18.997 13.9093C18.9726 13.6449 18.8442 13.401 18.64 13.2312C18.4358 13.0615 18.1725 12.9798 17.9081 13.0042C17.6437 13.0286 17.3997 13.157 17.23 13.3612L12.23 19.3612C12.1964 19.409 12.1663 19.4591 12.14 19.5112C12.14 19.5612 12.09 19.5912 12.07 19.6412C12.0247 19.7559 12.0009 19.878 12 20.0012C12.0009 20.1245 12.0247 20.2466 12.07 20.3612C12.07 20.4112 12.12 20.4412 12.14 20.4912C12.1663 20.5434 12.1964 20.5935 12.23 20.6412L17.23 26.6412C17.324 26.7541 17.4418 26.8449 17.5748 26.9071C17.7079 26.9694 17.8531 27.0015 18 27.0012C18.2337 27.0017 18.4601 26.9203 18.64 26.7712C18.7413 26.6873 18.825 26.5842 18.8863 26.4679C18.9477 26.3515 18.9855 26.2242 18.9975 26.0932C19.0096 25.9622 18.9957 25.8302 18.9567 25.7046C18.9176 25.579 18.8542 25.4623 18.77 25.3612L15.14 21.0012H27C27.2652 21.0012 27.5196 20.8959 27.7071 20.7084C27.8946 20.5208 28 20.2665 28 20.0012C28 19.736 27.8946 19.4817 27.7071 19.2941C27.5196 19.1066 27.2652 19.0012 27 19.0012Z" fill="#D6AD60" fill-opacity="0.3"/>
</svg>
