<svg width="60" height="60" viewBox="0 0 60 60" fill="none" xmlns="http://www.w3.org/2000/svg">
<path d="M33.4195 20.2737L30.2931 8.99121L27.1665 20.2737H33.4195Z" fill="#D6AD60"/>
<path d="M17.9241 20.273L27.0113 9.71191L11.3235 20.273H17.9241Z" fill="#D6AD60"/>
<path d="M18.5743 30.2345V35.5079H21.504V30.2345H20.3322V27.8907C20.3322 27.6688 20.2068 27.4659 20.0082 27.3667L17.6645 26.1948C17.3749 26.0501 17.023 26.1674 16.8784 26.4568C16.7337 26.7463 16.851 27.0982 17.1403 27.2429L19.1602 28.2529V30.2345H18.5743Z" fill="#D6AD60"/>
<path d="M31.4648 35.5078V32.5781H34.3945C34.7182 32.5781 34.9805 32.3159 34.9805 31.9922C34.9805 31.6685 34.7182 31.4062 34.3945 31.4062C33.064 31.4062 32.3282 31.4062 31.4648 31.4062V21.4453H29.1211V31.4062C28.0204 31.4062 27.2959 31.4062 26.1914 31.4062C25.8677 31.4062 25.6055 31.6685 25.6055 31.9922C25.6055 32.3159 25.8677 32.5781 26.1914 32.5781H29.1211V35.5078H31.4648Z" fill="#D6AD60"/>
<path d="M25.9504 20.2732L29.029 9.16406L19.4702 20.2732H25.9504Z" fill="#D6AD60"/>
<path d="M9.19922 25.5469C8.22996 25.5469 7.44141 26.3354 7.44141 27.3047C7.44141 28.2739 8.22996 29.0625 9.19922 29.0625C10.1685 29.0625 10.957 28.2739 10.957 27.3047C10.957 26.3354 10.1685 25.5469 9.19922 25.5469Z" fill="#D6AD60"/>
<path d="M49.2622 20.273L33.5745 9.71191L42.6617 20.273H49.2622Z" fill="#D6AD60"/>
<path d="M41.1156 20.2732L31.5569 9.16406L34.6354 20.2732H41.1156Z" fill="#D6AD60"/>
<path d="M51.3867 12.0703C53.3252 12.0703 54.9023 10.4932 54.9023 8.55469C54.9023 6.61617 53.3252 5.03906 51.3867 5.03906C49.4482 5.03906 47.8711 6.61617 47.8711 8.55469C47.8711 10.4932 49.4482 12.0703 51.3867 12.0703Z" fill="#D6AD60"/>
<path d="M55.4883 34.9219C55.1646 34.9219 54.9023 35.1841 54.9023 35.5078V44.2969H44.9414C44.6177 44.2969 44.3555 44.5591 44.3555 44.8828V55.9961C44.3555 56.3197 44.6177 56.582 44.9414 56.582C45.2651 56.582 45.5273 56.3197 45.5273 55.9961V48.9844H54.9023V55.9961C54.9023 56.3197 55.1646 56.582 55.4883 56.582C55.812 56.582 56.0742 56.3197 56.0742 55.9961C56.0742 54.1229 56.0742 37.4958 56.0742 35.5078C56.0742 35.1841 55.812 34.9219 55.4883 34.9219Z" fill="#D6AD60"/>
<path d="M15.6445 44.2969H5.68359V35.5078C5.68359 35.1841 5.42133 34.9219 5.09766 34.9219C4.77398 34.9219 4.51172 35.1841 4.51172 35.5078V55.9961C4.51172 56.3197 4.77398 56.582 5.09766 56.582C5.42133 56.582 5.68359 56.3197 5.68359 55.9961V48.9844H15.0586V55.9961C15.0586 56.3197 15.3209 56.582 15.6445 56.582C15.9682 56.582 16.2305 56.3197 16.2305 55.9961C16.2305 54.7638 16.2305 45.9718 16.2305 44.8828C16.2305 44.5591 15.9682 44.2969 15.6445 44.2969Z" fill="#D6AD60"/>
<path d="M6.85547 7.96875C7.17914 7.96875 7.44141 7.70637 7.44141 7.38281C7.44141 5.76738 8.75566 4.45312 10.3711 4.45312C11.9865 4.45312 13.3008 5.76738 13.3008 7.38281C13.3008 7.70637 13.563 7.96875 13.8867 7.96875H21.5039C21.8276 7.96875 22.0898 7.70637 22.0898 7.38281C22.0898 7.05926 21.8276 6.79688 21.5039 6.79688H14.4309C14.1457 4.81184 12.4338 3.28125 10.3711 3.28125C8.30836 3.28125 6.59648 4.81184 6.31125 6.79688H4.51172C4.18805 6.79688 3.92578 7.05926 3.92578 7.38281C3.92578 7.70637 4.18805 7.96875 4.51172 7.96875H6.85547Z" fill="#D6AD60"/>
<path d="M49.3359 30.2344C49.8213 30.2344 50.2148 29.8409 50.2148 29.3555C50.2148 28.8701 49.8213 28.4766 49.3359 28.4766C48.8505 28.4766 48.457 28.8701 48.457 29.3555C48.457 29.8409 48.8505 30.2344 49.3359 30.2344Z" fill="#D6AD60"/>
<path d="M54.6094 17.3438C55.0948 17.3438 55.4883 16.9503 55.4883 16.4648C55.4883 15.9794 55.0948 15.5859 54.6094 15.5859C54.124 15.5859 53.7305 15.9794 53.7305 16.4648C53.7305 16.9503 54.124 17.3438 54.6094 17.3438Z" fill="#D6AD60"/>
<path d="M38.7891 6.21094C39.2745 6.21094 39.668 5.81744 39.668 5.33203C39.668 4.84662 39.2745 4.45312 38.7891 4.45312C38.3037 4.45312 37.9102 4.84662 37.9102 5.33203C37.9102 5.81744 38.3037 6.21094 38.7891 6.21094Z" fill="#D6AD60"/>
<path d="M13.0078 12.6562C13.4932 12.6562 13.8867 12.2628 13.8867 11.7773C13.8867 11.2919 13.4932 10.8984 13.0078 10.8984C12.5224 10.8984 12.1289 11.2919 12.1289 11.7773C12.1289 12.2628 12.5224 12.6562 13.0078 12.6562Z" fill="#D6AD60"/>
<path d="M10.0781 36.0938C10.5635 36.0938 10.957 35.7003 10.957 35.2148C10.957 34.7294 10.5635 34.3359 10.0781 34.3359C9.59272 34.3359 9.19922 34.7294 9.19922 35.2148C9.19922 35.7003 9.59272 36.0938 10.0781 36.0938Z" fill="#D6AD60"/>
<path d="M41.7834 55.6686L31.1548 47.4783C42.42 39.0721 40.7406 40.3252 40.9147 40.1953H45.5273V36.6797C42.2334 36.6797 19.015 36.6797 15.0586 36.6797V40.1953H19.716L29.1313 47.4506L18.7573 55.6737C18.5037 55.8746 18.461 56.2431 18.662 56.4967C18.8632 56.7509 19.2322 56.7925 19.485 56.592C21.184 55.2679 28.5689 49.5127 29.707 48.6257V56.0546C29.707 56.3783 29.9693 56.6406 30.293 56.6406C30.6166 56.6406 30.8789 56.3783 30.8789 56.0546C30.8789 53.6325 30.8789 51.2156 30.8789 48.7972C34.8957 51.8837 39.1327 55.1727 41.0681 56.597C41.325 56.7948 41.6927 56.7462 41.89 56.4905C42.0874 56.2341 42.0397 55.8662 41.7834 55.6686ZM38.9365 40.1953L38.8874 40.2315C38.7146 40.2923 39.238 39.9541 30.8789 46.0857C30.8789 44.4188 30.8789 42.0025 30.8789 40.1953H38.9365ZM29.707 40.1953V46.3628C21.3854 39.9704 21.8755 40.2805 21.6681 40.2202L21.636 40.1953H29.707Z" fill="#D6AD60"/>
<path d="M42.8598 27.2429C43.1493 27.0982 43.2666 26.7463 43.1217 26.4568C42.9771 26.1674 42.6253 26.0501 42.3356 26.1948L39.9919 27.3667C39.7935 27.4659 39.668 27.6688 39.668 27.8907V30.2345H38.4961V35.5079H41.4258V30.2345H40.8398V28.2529L42.8598 27.2429Z" fill="#D6AD60"/>
</svg>
