<svg width="60" height="60" viewBox="0 0 60 60" fill="none" xmlns="http://www.w3.org/2000/svg">
<path d="M18.726 28.9786C20.8851 28.9671 22.6322 27.2014 22.6209 25.0423C22.6152 23.9964 22.2028 23.0153 21.4593 22.2797C20.7209 21.549 19.7439 21.1475 18.7059 21.1475C18.6989 21.1475 18.6916 21.1476 18.6844 21.1476C17.6386 21.1531 16.6575 21.5657 15.9217 22.3091C15.1861 23.0526 14.7841 24.038 14.7896 25.084C14.7952 26.1299 15.2077 27.111 15.9511 27.8466C16.6896 28.5772 17.6666 28.9788 18.7045 28.9788C18.7116 28.9787 18.7189 28.9786 18.726 28.9786ZM16.5472 25.0745C16.5442 24.4981 16.7657 23.955 17.1711 23.5453C17.5767 23.1355 18.1173 22.9082 18.6938 22.9052C18.6978 22.9051 18.7017 22.9051 18.7056 22.9051C19.2777 22.9051 19.8162 23.1264 20.2232 23.529C20.6329 23.9344 20.8603 24.4752 20.8633 25.0516C20.8663 25.6279 20.6447 26.1711 20.2393 26.5809C19.8339 26.9906 19.2932 27.218 18.7168 27.221C18.7128 27.2211 18.7089 27.2211 18.7049 27.2211C18.1329 27.2211 17.5944 26.9998 17.1874 26.5972C16.7777 26.1916 16.5502 25.6509 16.5472 25.0745Z" fill="#D6AD60"/>
<path d="M59.9241 39.1424C59.922 38.7728 59.6892 38.4442 59.3412 38.3197C58.8726 38.1522 58.3923 38.0055 57.9087 37.8805C58.0153 37.3084 58.0695 36.7223 58.0663 36.1275C58.0395 31.0734 53.9193 26.9804 48.8712 26.9804C48.8548 26.9804 48.838 26.9804 48.8216 26.9805C46.3653 26.9935 44.0612 27.9623 42.3335 29.7084C40.9462 31.1105 40.0655 32.8794 39.7784 34.7936L38.3722 32.4248C37.4345 30.845 35.6386 29.8641 33.6844 29.8641C33.6831 29.8641 33.6817 29.8641 33.6803 29.8641L33.44 29.8642L33.4187 25.8633L34.8731 25.8556C35.3584 25.853 35.7498 25.4574 35.7472 24.9721C35.7446 24.4866 35.3436 24.0954 34.8637 24.098L27.2472 24.1384C27.2472 24.1384 27.2071 18.9475 27.2059 18.9402C27.198 18.8965 27.1872 18.854 27.1733 18.8129C27.1716 18.808 27.1696 18.8031 27.1679 18.7982C27.1359 18.7092 27.0901 18.6269 27.0328 18.5539C27.0308 18.5515 27.0295 18.5485 27.0275 18.5461L20.5153 10.4174C20.0526 9.83976 19.363 9.50898 18.6226 9.51472C18.5829 9.51496 18.5431 9.51613 18.5036 9.51824C17.8168 9.55515 17.1853 9.87925 16.7537 10.4196C16.749 10.4255 16.7442 10.4315 16.7396 10.4375L13.2086 14.9422C12.3919 14.2482 11.3537 13.8615 10.2651 13.8615C10.257 13.8615 10.2487 13.8615 10.2407 13.8616C9.79452 13.864 9.35899 13.9298 8.93928 14.0581C7.97986 13.1412 6.70971 12.6272 5.36503 12.6272C5.35565 12.6272 5.34616 12.6272 5.33691 12.6272C2.47964 12.6424 0.167348 14.9794 0.182463 17.8372C0.182815 17.9071 0.18469 17.9775 0.187736 18.0487C0.299285 20.5448 2.3688 22.4914 4.90477 22.4913C4.91344 22.4913 4.92235 22.4913 4.93114 22.4912L10.156 22.4634L10.1736 24.4548C10.1778 24.9401 10.5761 25.3324 11.0601 25.3257C11.5454 25.3214 11.9354 24.9245 11.9311 24.4392L11.8923 20.0512L25.4676 19.9791L25.5233 30.4484L11.9448 30.5205L11.9312 27.9575C11.9286 27.4738 11.5356 27.0834 11.0525 27.0834C11.0509 27.0834 11.0493 27.0834 11.0477 27.0834C10.5624 27.086 10.171 27.4816 10.1736 27.9669L10.1919 31.4086L10.2097 34.7578C10.2097 34.7594 10.2099 34.761 10.2099 34.7625C10.2099 34.7639 10.2097 34.7653 10.2098 34.7667L10.2639 38.2402C9.84233 37.9183 9.3952 37.7562 8.92358 37.7562C8.91994 37.7562 8.91619 37.7562 8.91256 37.7562C6.11166 37.771 4.95633 43.5128 4.67054 45.2536C2.27658 45.5377 0.419622 47.5854 0.432628 50.0523C0.436963 50.8771 0.649164 51.6688 1.03841 52.3663C0.843437 52.4541 0.663693 52.5764 0.50879 52.733C0.178245 53.067 -0.00243583 53.5098 2.48054e-05 53.9798L0.00810975 55.5132C0.0133825 56.4803 0.801606 57.2635 1.76746 57.2633H1.77695L58.2497 56.9634C59.2198 56.9581 60.0049 56.1646 59.9998 55.1945L59.9241 39.1424ZM58.17 39.781L58.2366 51.9116C58.232 51.9116 58.2275 51.9109 58.223 51.911L57.2845 51.916L57.266 48.428C57.2647 48.195 57.171 47.972 57.0053 47.8079C56.8396 47.644 56.6118 47.5493 56.3825 47.5539L49.7166 47.5894L49.7046 45.333C51.8635 45.14 53.8654 44.2029 55.4074 42.6444C56.2921 41.7502 56.9698 40.7064 57.4203 39.5715C57.6714 39.6355 57.9221 39.7039 58.17 39.781ZM25.5325 32.206L25.5361 32.8888L25.5359 33.7976L21.7934 33.8175C21.7918 33.8175 21.7902 33.8175 21.7886 33.8175C21.7884 33.8175 21.7882 33.8175 21.788 33.8175L15.3169 33.8519C15.3167 33.8519 15.3165 33.8519 15.3163 33.8519C15.3161 33.8519 15.316 33.8519 15.3157 33.8519L11.9626 33.8697L11.9541 32.2781L25.5325 32.206ZM20.9492 41.2547L16.2431 41.2796L16.2305 39.321L20.9387 39.296L20.9492 41.2547ZM16.2545 43.0374L20.9584 43.0124L20.9689 44.9711L16.2672 44.9959L16.2545 43.0374ZM20.9294 37.5384L16.2191 37.5634L16.2065 35.6047L20.9191 35.5798L20.9294 37.5384ZM13.5162 47.8958C13.4581 45.9728 13.0263 43.6565 12.3644 41.7547C12.2669 41.4745 12.1666 41.2098 12.0639 40.9587L11.9809 35.6272L14.4488 35.6141L14.5298 48.147C14.213 48.0144 13.8721 47.9282 13.5162 47.8958ZM16.2948 49.7996C16.2965 49.777 16.298 49.7544 16.2979 49.7315L16.2785 46.7535L20.9781 46.7287L21.0067 52.1088L16.5633 52.1324C16.6258 51.8679 16.6578 51.5949 16.6564 51.3182C16.6535 50.7728 16.5232 50.2576 16.2948 49.7996ZM22.7644 52.0994L22.6766 35.5704L25.5503 35.5552L25.6381 52.0842L22.7644 52.0994ZM27.3957 52.0748L27.3098 35.9037L31.3177 35.901H31.3199C32.3782 35.901 33.3403 36.4143 33.8308 37.2407L38.5943 45.2651C37.9552 45.1227 37.301 45.0513 36.6328 45.0528C32.4763 45.075 28.9049 48.0174 28.0789 52.0712L27.3957 52.0748ZM36.642 46.8104C37.6133 46.8083 38.5578 46.9968 39.4479 47.3793C39.5913 47.441 39.7424 47.4606 39.8882 47.4449L42.0459 51.0798C42.2436 51.4128 42.4811 51.7172 42.748 51.9932L29.884 52.0616C30.6759 49.0079 33.4422 46.8274 36.642 46.8104ZM47.9578 47.3854C47.3763 47.1623 46.8872 46.7691 46.5809 46.2531L45.7305 44.8204C46.4413 45.0784 47.1846 45.2496 47.9469 45.3255L47.9578 47.3854ZM49.7258 49.347L55.5131 49.3162L55.5265 51.8362L49.7392 51.8669L49.7258 49.347ZM41.4322 36.216C41.4216 34.2292 42.1854 32.3571 43.5828 30.9449C44.9802 29.5325 46.8441 28.7488 48.8309 28.7383C48.8443 28.7381 48.8573 28.7381 48.8709 28.7381C52.9539 28.7381 56.2868 32.0491 56.3086 36.1369C56.3191 38.1238 55.5554 39.9958 54.1579 41.4081C52.9463 42.6326 51.3841 43.3835 49.6951 43.5687L49.6685 38.5693L51.9239 36.2898C52.2652 35.9449 52.2623 35.3884 51.9172 35.0471C51.5724 34.7059 51.0159 34.7086 50.6745 35.0538L49.6553 36.0837L49.6486 34.8206C49.646 34.3353 49.246 33.9466 48.7651 33.9465C48.2798 33.9491 47.8884 34.3446 47.891 34.83L47.9099 38.3849L46.9591 37.4442C46.6141 37.1029 46.0577 37.1059 45.7164 37.4509C45.3751 37.7959 45.378 38.3523 45.7231 38.6936L47.9231 40.8705L47.9374 43.5549C46.4218 43.3652 45.0049 42.7154 43.8628 41.6743L41.6409 37.9313C41.5059 37.373 41.4352 36.7965 41.4322 36.216ZM33.6814 31.6219H33.6842C35.0211 31.6219 36.2381 32.2732 36.8607 33.3222L42.3978 42.6499C42.4084 42.6695 42.42 42.6886 42.432 42.7076L45.0694 47.1505C45.691 48.1977 46.7476 48.9348 47.9673 49.2193L47.9813 51.8764L46.7552 51.883C46.7479 51.883 46.7407 51.883 46.7335 51.883C45.3962 51.883 44.1805 51.2329 43.5571 50.1827L35.3419 36.3436C34.5362 34.9864 32.9953 34.1437 31.3196 34.1437C31.3185 34.1437 31.3172 34.1437 31.3163 34.1437L27.3002 34.1464L27.2935 32.8849L27.2939 31.6263L33.6814 31.6219ZM31.6823 29.8656L30.3638 29.8665L30.3426 25.8798L31.6611 25.8728L31.6823 29.8656ZM28.585 25.8892L28.6061 29.8678L27.2776 29.8687L27.2565 25.8963L28.585 25.8892ZM18.1228 11.5219C18.2918 11.3063 18.5142 11.273 18.6318 11.2724C18.751 11.2751 18.9722 11.3028 19.1435 11.5165L24.5192 18.2265L12.8186 18.2886L18.1228 11.5219ZM4.92176 20.7336C3.34368 20.7425 2.012 19.5023 1.94357 17.9705C1.94147 17.9225 1.94029 17.8746 1.93994 17.8274C1.92998 15.9392 3.45804 14.3949 5.34616 14.3848H5.36468C6.39709 14.3848 7.36342 14.844 8.01853 15.6464C8.27385 15.9592 8.70938 16.0579 9.07449 15.8854C9.44418 15.711 9.83963 15.6214 10.2501 15.6192C10.9475 15.6139 11.6101 15.8702 12.1225 16.328L10.314 18.635C10.3117 18.6379 10.3102 18.6412 10.308 18.6441C10.2822 18.6779 10.259 18.7133 10.2385 18.7502C10.236 18.7546 10.2332 18.7587 10.2308 18.7632C10.2106 18.8008 10.194 18.8401 10.1796 18.8802C10.1766 18.8883 10.1737 18.8964 10.171 18.9045C10.158 18.9442 10.1403 20.7059 10.1403 20.7059L4.92176 20.7336ZM7.5748 41.2929C8.14754 39.9898 8.69415 39.5151 8.92182 39.5138H8.92276C9.23291 39.5138 9.98962 40.2782 10.7045 42.3322C11.2465 43.8897 11.6282 45.814 11.7346 47.4521C11.1865 47.1675 10.573 47.0139 9.94017 47.0139C9.93326 47.0139 9.92623 47.014 9.91931 47.014C9.62884 47.0155 9.34317 47.0487 9.06465 47.113C8.40532 46.2468 7.47555 45.6363 6.43083 45.3698C6.68229 43.856 7.09052 42.3945 7.5748 41.2929ZM5.22395 46.9766H5.24036C6.36205 46.9766 7.38966 47.5893 7.92479 48.5784C8.14414 48.9839 8.63943 49.1509 9.05985 48.961C9.33438 48.837 9.62673 48.7731 9.9288 48.7716C10.5598 48.77 11.1548 49.0412 11.5656 49.5204C11.8115 49.8071 12.2132 49.9046 12.5632 49.7627C12.7638 49.6814 12.9752 49.6396 13.1918 49.6385H13.2011C14.1332 49.6385 14.8941 50.3944 14.8991 51.3276C14.9006 51.6148 14.8291 51.8941 14.6949 52.1424L3.10628 52.2039C2.52522 51.6358 2.19468 50.8653 2.19022 50.0431C2.18108 48.3611 3.54217 46.9855 5.22395 46.9766ZM58.2403 55.2059L1.76571 55.504L1.7595 53.9687L2.5974 53.9642C2.66782 53.9821 2.73988 53.9943 2.81347 53.9943H2.81815L58.2342 53.6706L58.2417 55.2059C58.2417 55.2059 58.2413 55.2059 58.2403 55.2059Z" fill="#D6AD60"/>
<path d="M35.0849 14.0427H35.1003L39.9475 14.0171C40.4328 14.0145 40.8242 13.619 40.8216 13.1336C40.819 12.6498 40.426 12.2595 39.9429 12.2595C39.9413 12.2595 39.9397 12.2595 39.9382 12.2595L35.0909 12.2851C35.0889 12.2851 35.087 12.2851 35.085 12.2851C34.5064 12.2851 34.0309 11.8312 34.0241 11.2675L34.024 11.2552C34.0176 10.0452 34.9973 9.03532 36.2079 9.00392C36.631 8.9929 36.9863 8.68181 37.0528 8.26385C37.3994 6.09099 39.2504 4.50541 41.4542 4.49369H41.4789C43.6827 4.49369 45.5396 6.06475 45.8993 8.23796C45.9768 8.70641 46.4126 9.02876 46.8829 8.96548C46.9963 8.95037 47.0878 8.9431 47.171 8.94264H47.1828C47.9711 8.94264 48.71 9.36411 49.1135 10.0444C49.2718 10.3115 49.5592 10.4751 49.8695 10.4751H49.8741L52.2837 10.4624H52.2884C52.7636 10.4624 53.1516 10.8478 53.154 11.3236C53.1566 11.8011 52.7702 12.1915 52.2928 12.1941L42.9878 12.2435C42.5093 12.2461 42.1208 12.631 42.1138 13.1094C42.1067 13.5878 42.4837 13.984 42.9619 14.0006L43.4277 14.0168C43.5024 14.0193 43.5744 14.0127 43.644 13.9977L52.3022 13.9518C53.7487 13.9441 54.9193 12.761 54.9116 11.3145C54.9039 9.87252 53.7287 8.70501 52.2885 8.70501C52.2838 8.70501 52.2789 8.70501 52.2742 8.70501L50.3282 8.71532C49.6322 7.83195 48.5863 7.27433 47.4605 7.195C46.6874 4.56657 44.2856 2.73633 41.4794 2.73633C41.4681 2.73633 41.4564 2.73633 41.4451 2.73645C38.6043 2.75156 36.1845 4.6459 35.4586 7.32905C33.6357 7.70915 32.2565 9.34641 32.2667 11.2672L32.267 11.2925C32.2852 12.8119 33.5481 14.0427 35.0849 14.0427Z" fill="#D6AD60"/>
</svg>
