<svg width="40" height="40" viewBox="0 0 40 40" fill="none" xmlns="http://www.w3.org/2000/svg">
<rect x="0.5" y="0.5" width="39" height="39" rx="19.5" fill="#122620"/>
<rect x="0.5" y="0.5" width="39" height="39" rx="19.5" stroke="#D6AD60"/>
<path d="M13 21H24.86L21.23 25.36C21.146 25.4611 21.0826 25.5778 21.0437 25.7034C21.0047 25.829 20.9909 25.961 21.003 26.0919C21.0274 26.3564 21.1558 26.6003 21.36 26.77C21.5642 26.9397 21.8275 27.0214 22.0919 26.997C22.3563 26.9726 22.6003 26.8442 22.77 26.64L27.77 20.64C27.8036 20.5923 27.8337 20.5421 27.86 20.49C27.86 20.44 27.91 20.41 27.93 20.36C27.9753 20.2453 27.9991 20.1233 28 20C27.9991 19.8767 27.9753 19.7547 27.93 19.64C27.93 19.59 27.88 19.56 27.86 19.51C27.8337 19.4579 27.8036 19.4077 27.77 19.36L22.77 13.36C22.676 13.2471 22.5582 13.1563 22.4252 13.0941C22.2921 13.0319 22.1469 12.9998 22 13C21.7663 12.9995 21.5399 13.0809 21.36 13.23C21.2587 13.314 21.175 13.4171 21.1137 13.5334C21.0523 13.6497 21.0145 13.7771 21.0025 13.908C20.9904 14.039 21.0043 14.1711 21.0433 14.2967C21.0824 14.4223 21.1458 14.539 21.23 14.64L24.86 19H13C12.7348 19 12.4804 19.1054 12.2929 19.2929C12.1054 19.4804 12 19.7348 12 20C12 20.2652 12.1054 20.5196 12.2929 20.7071C12.4804 20.8946 12.7348 21 13 21Z" fill="#D6AD60"/>
</svg>
