<svg width="60" height="60" viewBox="0 0 60 60" fill="none" xmlns="http://www.w3.org/2000/svg">
<g clip-path="url(#clip0_777_1107)">
<path d="M22.1584 38.5582C21.9751 37.4546 21.1882 36.5887 20.1051 36.2986C19.0218 36.0083 17.9076 36.3648 17.1971 37.2288C16.2398 38.3927 15.6627 39.295 15.438 39.98C14.2206 41.9094 12.6932 42.598 10.7712 42.0829C10.3025 41.9578 9.82046 42.2355 9.69472 42.7044C9.56909 43.1732 9.8473 43.6552 10.3162 43.7809C10.8189 43.9155 11.3772 44.0075 11.9653 44.0075C12.1438 44.0075 12.3251 43.9985 12.5082 43.9801C13.3902 45.6797 15.0528 46.991 17.0864 47.5532C17.7917 47.7482 18.5045 47.8438 19.203 47.8438C20.5505 47.8438 21.8431 47.487 22.922 46.8043C23.5424 47.2334 24.213 47.5045 24.8414 47.6729C24.9176 47.6933 24.9941 47.703 25.0695 47.703C25.4575 47.703 25.8127 47.444 25.9179 47.0513C26.0435 46.5825 25.7652 46.1006 25.2964 45.9748C23.3731 45.4596 22.3958 44.0968 22.3074 41.8145C22.4537 41.1091 22.4049 40.0411 22.1584 38.5582ZM17.0935 40.5761C17.1477 40.3735 17.3989 39.7508 18.5547 38.3454C18.8256 38.0158 19.2351 37.8854 19.6501 37.9965C20.0651 38.1077 20.3544 38.4254 20.4244 38.8463C20.7226 40.6418 20.6287 41.3065 20.5744 41.5088C20.4149 42.104 19.0934 42.094 18.5884 41.9587C18.0833 41.8234 16.934 41.1712 17.0935 40.5761ZM17.555 45.8591C16.1242 45.4636 14.94 44.6026 14.2457 43.4854C14.8098 43.2084 15.371 42.8047 15.9099 42.2379C16.4832 42.9468 17.3742 43.4533 18.1335 43.6568C18.4739 43.7479 18.8676 43.7998 19.2753 43.7998C19.7773 43.7998 20.2994 43.7193 20.7691 43.5384C20.9603 44.3326 21.2616 44.985 21.633 45.5202C20.4613 46.1259 18.9954 46.2574 17.555 45.8591Z" fill="#D6AD60"/>
<path d="M13.9262 35.9523C14.2299 35.8923 14.7778 36.0388 15.011 36.243C15.1777 36.389 15.3841 36.4606 15.5896 36.4606C15.8341 36.4606 16.0775 36.3591 16.2513 36.1607C16.5711 35.7956 16.5343 35.2402 16.169 34.9206C15.519 34.3514 14.4321 34.0598 13.5844 34.228C13.1083 34.3223 12.7988 34.7847 12.8931 35.261C12.9876 35.737 13.4499 36.0465 13.9262 35.9523Z" fill="#D6AD60"/>
<path d="M24.5442 38.7971C24.8481 38.7372 25.3958 38.8835 25.629 39.0877C25.7958 39.2338 26.0022 39.3054 26.2077 39.3054C26.4521 39.3054 26.6955 39.2039 26.8692 39.0055C27.189 38.6404 27.1522 38.0851 26.787 37.7653C26.137 37.196 25.0501 36.9045 24.2024 37.0728C23.7262 37.1671 23.4167 37.6295 23.5111 38.1058C23.6055 38.5819 24.0677 38.8914 24.5442 38.7971Z" fill="#D6AD60"/>
<path d="M51.4631 31.4616C53.1037 29.4963 53.5109 27.2688 52.7861 24.5635L52.6038 23.8836C54.6295 22.6435 55.374 19.7066 54.4505 16.2598C53.5934 13.0609 52.5314 11.5495 50.8995 11.2061C50.333 11.0869 49.7599 11.1803 49.2736 11.4551L47.8875 6.28231C47.3143 4.14271 45.1895 2.31822 41.9047 1.14482C39.2423 0.193846 36.0499 -0.213029 33.7712 0.108533C33.2904 0.176385 32.9559 0.620993 33.0237 1.10158C33.0915 1.58216 33.5354 1.9172 34.0168 1.849C35.7302 1.60748 38.0147 1.82978 40.1479 2.42919L35.624 3.64138C35.1551 3.767 34.8769 4.24899 35.0024 4.71786C35.1077 5.11055 35.4627 5.36954 35.8509 5.36954C35.9262 5.36954 36.0027 5.35981 36.0789 5.33942L42.9473 3.49911C43.6941 3.87763 44.3604 4.31192 44.8978 4.79626L37.9257 6.66446C36.185 7.13086 35.035 7.43895 33.8062 7.11914C32.6129 6.8086 31.2853 5.89454 29.4588 4.11294C29.9013 3.77028 30.3546 3.45165 30.8109 3.16372C31.2214 2.90474 31.3442 2.36193 31.0852 1.95142C30.8262 1.54091 30.2834 1.41798 29.8729 1.67708C26.5268 3.78833 21.6451 8.73129 22.7907 13.007L24.1698 18.1538C19.8997 17.2425 16.4443 18.4233 14.2516 19.62C13.8255 19.8526 13.6686 20.3865 13.9012 20.8126C14.1338 21.2387 14.6678 21.3957 15.0938 21.163C17.1363 20.0482 20.4247 18.9479 24.4909 20.0375C28.8706 21.211 31.2221 24.1086 32.4236 26.3327C33.451 28.2344 34.3047 31.1437 33.8636 32.79C33.4242 34.4303 32.2772 36.4301 31.693 37.3862C29.2766 36.4474 29.0067 34.2793 28.6975 31.7973C28.3825 29.2674 28.0253 26.4 24.8081 25.5378C24.3397 25.4124 23.8573 25.6905 23.7316 26.1594C23.606 26.6282 23.8842 27.1101 24.3532 27.2359C26.3271 27.7647 26.6272 29.3963 26.9532 32.0145C26.9843 32.2641 27.0161 32.5195 27.0514 32.778C26.3464 32.3173 25.5912 31.9868 24.7359 31.7575C24.2675 31.6325 23.785 31.9101 23.6594 32.379C23.5338 32.8478 23.812 33.3298 24.2809 33.4555C25.5049 33.7835 26.6349 34.3797 27.6289 35.42C28.1484 36.908 29.0966 38.2503 31.0092 39.005L29.0668 46.254C28.2366 49.3521 25.6413 50.8533 20.6513 51.1212C20.4763 51.1306 20.3081 51.1921 20.1683 51.2978C20.1499 51.3118 18.3026 52.6804 15.8886 52.0334C13.504 51.3945 12.5864 49.3396 12.5502 49.2565C12.482 49.095 12.3671 48.9577 12.2202 48.8621C8.03285 46.135 6.53566 43.5373 7.36582 40.4392L9.30632 33.1973C9.65413 33.2519 9.98671 33.2786 10.3043 33.2786C11.8957 33.2786 13.121 32.6325 14.1324 31.7466C15.4733 31.3752 16.7169 31.4286 17.9099 31.7484C18.3787 31.8738 18.8607 31.5958 18.9863 31.127C19.112 30.6581 18.8338 30.1761 18.3649 30.0505C17.5322 29.8273 16.7338 29.7355 15.9163 29.7736C16.0713 29.573 16.2222 29.3737 16.3698 29.1787C17.9614 27.0741 19.0371 25.8111 21.0109 26.3402C21.4791 26.4657 21.9616 26.1876 22.0873 25.7186C22.213 25.2498 21.9347 24.7679 21.4658 24.6422C18.2488 23.7801 16.5055 26.085 14.9678 28.1183C13.459 30.1133 12.1413 31.8556 9.57925 31.4607C9.55124 30.3406 9.55792 28.0353 9.99749 26.3949C10.1778 25.7217 10.9077 24.4578 12.371 23.1116C12.7282 22.783 12.7514 22.2269 12.4228 21.8697C12.0942 21.5126 11.5382 21.4894 11.181 21.8179C9.70429 23.1764 8.6271 24.7174 8.29956 25.9399C8.15085 26.495 8.0455 27.1048 7.97167 27.7196C7.73472 27.6959 7.49238 27.708 7.25121 27.7588C5.61937 28.1022 4.55742 29.6135 3.70031 32.8123C3.14825 34.8728 3.19266 36.7509 3.74977 38.1937C1.92786 39.9865 0.000244141 42.5688 0.000244141 44.5592C0.000244141 47.1479 1.55708 49.4138 3.8543 50.3828C3.74789 50.5227 3.64254 50.6636 3.53942 50.8069C3.25582 51.2008 3.34524 51.75 3.7391 52.0337C3.89449 52.1457 4.07403 52.1995 4.25192 52.1995C4.52508 52.1995 4.79414 52.0725 4.96594 51.8341C5.97504 50.4325 7.15195 49.2112 8.47066 48.1949C9.1964 48.8696 10.055 49.5358 11.0565 50.2006C11.441 50.9371 12.736 53.0085 15.4339 53.7314C16.0535 53.8975 16.6442 53.9649 17.1956 53.9649C19.0455 53.9649 20.45 53.2056 20.9902 52.8624C22.9999 52.7368 24.667 52.4091 26.0397 51.8678C30.8007 54.4465 32.4124 59.3357 32.4279 59.3846C32.5444 59.7533 32.8863 59.9988 33.2655 59.9988C33.2985 59.9988 33.3319 59.997 33.3654 59.9932C33.7832 59.9456 34.1089 59.6088 34.1423 59.1897C34.3883 56.0973 34.972 53.0737 35.8771 50.2023C36.0231 49.7395 35.7661 49.2457 35.3031 49.0998C34.8405 48.9536 34.3465 49.2108 34.2006 49.6738C33.556 51.7185 33.0677 53.8362 32.741 55.9994C31.7712 54.4003 30.2159 52.4296 27.8633 50.9063C29.1863 49.9884 30.114 48.7325 30.6289 47.1616C33.0092 47.1092 35.1295 44.9359 36.055 41.4821C36.517 39.758 36.6817 38.4294 36.5416 37.3958C37.1802 37.7337 38.524 38.3165 40.2937 38.3854C38.405 40.4893 36.7399 43.2049 35.4085 46.3735C35.2205 46.821 35.4308 47.3362 35.8783 47.5243C35.9895 47.571 36.1048 47.5931 36.2184 47.5931C36.5616 47.5931 36.8877 47.3907 37.0291 47.0543C38.6472 43.2031 40.7661 40.0877 43.1625 38.0262C46.2939 37.1101 47.8385 34.8571 48.2764 34.1102C49.0032 33.6584 49.6437 33.1959 50.2039 32.7195C51.8238 33.8853 53.1481 34.9896 54.2203 36.1082C52.5494 35.8059 50.9216 35.9752 49.4638 36.6255C47.2042 37.6334 45.5539 39.7035 44.8168 42.4546L43.5222 47.286C38.3306 49.4461 35.9363 54.6473 35.9363 59.1198C35.9363 59.6052 36.3298 59.9987 36.8152 59.9987C37.3006 59.9987 37.6941 59.6052 37.6941 59.1198C37.6941 56.8043 38.4446 54.3921 39.753 52.5019C41.3287 50.2255 43.6647 48.7495 46.5085 48.2335C46.9343 48.1566 47.208 48.3956 47.306 48.5021C47.5151 48.7292 47.5893 49.0299 47.5096 49.3274L44.9466 58.8924C44.821 59.3612 45.0992 59.8432 45.5682 59.9688C45.6443 59.9892 45.7209 59.999 45.7962 59.999C46.1842 59.999 46.5394 59.74 46.6446 59.3473L49.2076 49.7822C49.443 48.904 49.2154 47.9804 48.5991 47.3111C47.9846 46.6438 47.0855 46.342 46.1946 46.5038C45.9634 46.5458 45.7366 46.5933 45.5137 46.6455L46.5148 42.9093C47.1121 40.6801 48.4138 39.0185 50.1801 38.2306C51.9399 37.4457 54.059 37.5761 56.1694 38.5893C57.6785 41.0287 58.2424 43.765 58.2424 47.4708V52.3483C58.2424 52.8337 58.6359 53.2272 59.1213 53.2272C59.6067 53.2272 60.0002 52.8337 60.0002 52.3483V47.4708C60.0001 40.1654 57.9025 36.1559 51.4631 31.4616ZM5.39836 33.2675C6.34172 29.7467 7.29878 29.5453 7.6132 29.4791C7.69617 29.4616 7.76999 29.4631 7.83527 29.4747C7.79179 30.53 7.81546 31.4407 7.83433 31.9058C7.83128 31.9156 7.82753 31.9251 7.82484 31.9351L6.04148 38.5904C5.14969 37.6862 4.69664 35.8863 5.39836 33.2675ZM5.05816 48.9455C3.12047 48.3917 1.75817 46.6171 1.75817 44.5592C1.75817 43.4553 2.95676 41.5149 4.69348 39.7358C4.94918 40.0114 5.2384 40.2492 5.55984 40.4443C5.1743 42.2818 5.45144 44.0337 6.38906 45.6581C6.63339 46.0815 6.92425 46.4984 7.25988 46.9108C6.47789 47.5254 5.74219 48.2045 5.05816 48.9455ZM49.9984 13.0945C50.0653 13.0239 50.2518 12.866 50.5376 12.9262C50.8521 12.9923 51.8092 13.1939 52.7526 16.7147C53.4543 19.3336 53.0012 21.1335 52.1093 22.0377L49.8597 13.642C49.7841 13.36 49.9315 13.1652 49.9984 13.0945ZM48.855 16.6844C49.2147 18.0292 49.2719 19.597 45.2698 20.6693C43.6645 21.0994 42.4891 21.1756 41.6758 20.9024C41.2057 20.7444 40.5395 20.3806 40.1834 19.0515C39.9713 18.26 39.6808 17.1759 44.0221 16.0127C45.3891 15.6464 46.3541 15.503 47.0419 15.503C48.5011 15.503 48.7108 16.1494 48.855 16.6844ZM37.9175 21.1361C37.9797 20.8434 38.2116 20.7514 38.3084 20.7255C38.3424 20.7164 38.3949 20.706 38.4575 20.706C38.5728 20.706 38.7223 20.7413 38.8523 20.8856C39.8722 22.0177 41.2689 23.5681 41.4938 24.4074C41.5234 24.5182 41.6138 24.8553 41.0466 25.3631C40.6374 25.7293 40.0848 25.9943 39.7447 26.0854C39.4046 26.1765 38.7936 26.2236 38.256 26.1109C37.5109 25.9549 37.4206 25.6177 37.3909 25.507C37.1658 24.6676 37.6002 22.6264 37.9175 21.1361ZM46.1896 6.73723L46.9228 9.47391L45.334 8.64246C44.9994 8.46738 44.7521 8.15789 44.6549 7.79086L44.3774 6.7554L46.0395 6.31008C46.1 6.44989 46.1508 6.59215 46.1896 6.73723ZM33.3636 8.82012C33.8712 8.95219 34.3599 9.0082 34.8469 9.0082C35.9697 9.0082 37.082 8.7102 38.3887 8.36004L42.6796 7.21032L42.9564 8.24344C43.1791 9.08356 43.7486 9.79652 44.5191 10.1998L47.5412 11.7813L48.0945 13.846C47.56 13.7375 46.9323 13.7205 46.1908 13.7966C44.487 12.9303 42.2146 12.1059 39.4399 12.8493C38.971 12.9749 38.6928 13.4569 38.8184 13.9257C38.944 14.3946 39.4259 14.6725 39.8949 14.5472C40.9349 14.2684 41.9356 14.2379 43.0035 14.4717C40.4062 15.2265 38.0263 16.3917 38.3727 18.9505C38.1998 18.9566 38.0258 18.9813 37.8534 19.0275C37.6811 19.0737 37.518 19.1394 37.3652 19.2205C36.9803 18.2719 36.3216 17.6737 35.362 17.402C34.3594 17.1179 32.9987 17.1998 31.1132 17.6591C31.9218 16.9215 32.8042 16.447 33.8453 16.168C34.3142 16.0424 34.5924 15.5604 34.4668 15.0915C34.3411 14.6228 33.8594 14.3448 33.3903 14.4701C31.9017 14.869 29.9567 15.7092 28.0217 18.6609C27.6979 18.8058 27.4086 18.956 27.1487 19.1129C26.8251 18.9699 26.4881 18.8366 26.1394 18.7124L25.8403 17.596L27.6669 14.7152C28.1325 13.9808 28.2692 13.0786 28.042 12.2398C27.8343 11.4731 27.5738 10.5131 27.3236 9.59074C27.0316 8.51426 26.7537 7.49016 26.5898 6.88372C27.052 6.3218 27.5668 5.77501 28.1167 5.2588C30.2399 7.34438 31.835 8.42238 33.3636 8.82012ZM25.2815 8.77699C25.3898 9.17625 25.5073 9.60938 25.6272 10.0512C25.8774 10.9733 26.1378 11.933 26.3453 12.6995C26.4439 13.0636 26.3845 13.4553 26.1823 13.7742L25.2221 15.2887L24.4889 12.5521C24.1905 11.439 24.5359 10.1147 25.2815 8.77699ZM29.0533 20.1349C29.5948 19.9159 30.2459 19.704 31.0037 19.501C35.345 18.3376 35.6354 19.4217 35.8475 20.2133C36.2616 21.7591 35.9228 22.9908 33.0029 23.9358C32.0755 22.6197 30.7965 21.2509 29.0533 20.1349ZM34.3571 41.0269C33.6554 43.6456 32.363 44.9774 31.1387 45.3148L32.8857 38.7947C33.0874 38.482 33.6306 37.6184 34.1934 36.5445C34.1934 36.5445 34.3383 36.624 34.5551 36.8954C34.8224 37.3202 35.0784 38.3348 34.3571 41.0269ZM47.1637 32.7305C47.0223 32.8162 46.9061 32.9437 46.8319 33.0915C46.7813 33.1923 45.5574 35.5683 42.5045 36.3863C39.4522 37.2042 37.2037 35.7584 37.1129 35.6988C36.9733 35.6051 36.8098 35.5535 36.6418 35.5498C36.3115 35.5428 35.9914 35.5271 35.6846 35.5037C35.6276 35.444 35.5688 35.3858 35.5065 35.3299C35.3369 35.1779 35.1502 35.0538 34.9519 34.9586C35.1969 34.3866 35.412 33.8029 35.5615 33.245C35.6829 32.7921 35.7405 32.2062 35.7197 31.527C36.3726 31.6966 37.0983 31.7833 37.8745 31.7833C38.9061 31.7833 40.0239 31.633 41.1671 31.3311C42.9212 30.8677 44.4489 30.1229 45.5646 29.2111L45.8601 30.3138C45.9653 30.7065 46.3204 30.9655 46.7085 30.9655C46.7839 30.9655 46.8604 30.9557 46.9366 30.9353C47.4054 30.8097 47.6836 30.3277 47.5581 29.8589L46.3198 25.2372C46.1942 24.7684 45.7121 24.4902 45.2433 24.6157C44.7744 24.7413 44.4962 25.2233 44.6218 25.6922L45.0486 27.2852C43.1096 29.4795 38.0267 30.7477 35.4835 29.592C35.4828 29.5917 35.482 29.5914 35.4811 29.5911C35.2201 28.3278 34.7367 26.9163 33.97 25.4972C33.966 25.4898 33.9617 25.4823 33.9577 25.4749C34.4499 25.3024 35.0246 25.0634 35.5758 24.7289C35.5654 25.1881 35.5973 25.6065 35.6926 25.9617C35.9504 26.9238 36.7326 27.5877 37.8953 27.8312C38.2447 27.9044 38.5987 27.9336 38.9309 27.9335C39.4359 27.9335 39.8901 27.8661 40.1992 27.7832C40.7118 27.6459 41.5482 27.2727 42.2185 26.6728C43.1036 25.8806 43.4492 24.9145 43.1914 23.9524C43.0955 23.5947 42.9122 23.2139 42.6713 22.8186C42.7123 22.8193 42.753 22.8207 42.7946 22.8207C43.6303 22.8207 44.5936 22.6701 45.7244 22.3671C46.6201 22.1271 48.6133 21.5925 49.8067 20.2372L51.0878 25.0182C51.9614 28.2775 50.8245 30.5118 47.1637 32.7305Z" fill="#D6AD60"/>
<path d="M59.1211 54.9854C58.6357 54.9854 58.2422 55.3789 58.2422 55.8643V59.1201C58.2422 59.6055 58.6357 59.999 59.1211 59.999C59.6065 59.999 60 59.6055 60 59.1201V55.8643C60 55.3789 59.6066 54.9854 59.1211 54.9854Z" fill="#D6AD60"/>
<path d="M2.94339 53.3668C2.50734 53.1538 1.98093 53.3341 1.76765 53.7701C0.973353 55.3939 0.384486 57.1353 0.0176891 58.9458C-0.0787562 59.4216 0.228861 59.8854 0.704525 59.9817C0.76347 59.9937 0.822064 59.9994 0.879955 59.9994C1.28941 59.9994 1.65597 59.7117 1.74046 59.2949C2.07761 57.631 2.61796 56.0321 3.34663 54.5426C3.55992 54.1065 3.37933 53.5801 2.94339 53.3668Z" fill="#D6AD60"/>
</g>
<defs>
<clipPath id="clip0_777_1107">
<rect width="60" height="60" fill="white"/>
</clipPath>
</defs>
</svg>
