<svg width="60" height="60" viewBox="0 0 60 60" fill="none" xmlns="http://www.w3.org/2000/svg">
<path d="M30 49.2188C29.7514 49.2188 29.5129 49.12 29.3371 48.9442C29.1613 48.7683 29.0625 48.5299 29.0625 48.2812V46.875C29.0625 46.6264 29.1613 46.3879 29.3371 46.2121C29.5129 46.0363 29.7514 45.9375 30 45.9375C30.2486 45.9375 30.4871 46.0363 30.6629 46.2121C30.8387 46.3879 30.9375 46.6264 30.9375 46.875V48.2812C30.9375 48.5299 30.8387 48.7683 30.6629 48.9442C30.4871 49.12 30.2486 49.2188 30 49.2188ZM30.9375 53.6509V51.3496C30.9375 51.101 30.8387 50.8625 30.6629 50.6867C30.4871 50.5109 30.2486 50.4121 30 50.4121C29.7514 50.4121 29.5129 50.5109 29.3371 50.6867C29.1613 50.8625 29.0625 51.101 29.0625 51.3496V53.6508C29.0625 53.8994 29.1613 54.1379 29.3371 54.3137C29.5129 54.4895 29.7514 54.5883 30 54.5883C30.2486 54.5883 30.4871 54.4895 30.6629 54.3137C30.8387 54.1379 30.9375 53.8995 30.9375 53.6509ZM30.9375 58.125V56.7188C30.9375 56.4701 30.8387 56.2317 30.6629 56.0558C30.4871 55.88 30.2486 55.7812 30 55.7812C29.7514 55.7812 29.5129 55.88 29.3371 56.0558C29.1613 56.2317 29.0625 56.4701 29.0625 56.7188V58.125C29.0625 58.3736 29.1613 58.6121 29.3371 58.7879C29.5129 58.9637 29.7514 59.0625 30 59.0625C30.2486 59.0625 30.4871 58.9637 30.6629 58.7879C30.8387 58.6121 30.9375 58.3736 30.9375 58.125ZM23.9719 48.4781L24.3417 47.1214C24.3741 47.0026 24.3828 46.8785 24.3673 46.7564C24.3518 46.6342 24.3123 46.5163 24.2512 46.4094C24.1901 46.3025 24.1086 46.2086 24.0112 46.1332C23.9138 46.0578 23.8026 46.0023 23.6838 45.9699C23.565 45.9375 23.441 45.9288 23.3188 45.9444C23.1966 45.9599 23.0787 45.9993 22.9718 46.0604C22.8649 46.1215 22.771 46.2031 22.6956 46.3004C22.6202 46.3978 22.5647 46.5091 22.5323 46.6279L22.1624 47.9847C22.097 48.2247 22.1295 48.4808 22.2529 48.6967C22.3763 48.9126 22.5805 49.0707 22.8204 49.1361C23.0603 49.2015 23.3164 49.169 23.5324 49.0456C23.7483 48.9222 23.9064 48.7181 23.9719 48.4781ZM22.6526 53.3136L23.2179 51.2417C23.2503 51.1229 23.259 50.9989 23.2435 50.8767C23.2279 50.7545 23.1885 50.6366 23.1274 50.5297C23.0663 50.4228 22.9847 50.329 22.8874 50.2536C22.79 50.1782 22.6788 50.1227 22.56 50.0903C22.4411 50.0579 22.3171 50.0492 22.195 50.0648C22.0728 50.0803 21.9549 50.1197 21.848 50.1808C21.7411 50.2419 21.6472 50.3235 21.5718 50.4209C21.4964 50.5182 21.441 50.6295 21.4086 50.7483L20.8432 52.8202C20.8108 52.939 20.8022 53.063 20.8177 53.1851C20.8332 53.3073 20.8727 53.4252 20.9337 53.5321C20.9948 53.6391 21.0764 53.7329 21.1738 53.8083C21.2711 53.8837 21.3824 53.9392 21.5012 53.9716C21.62 54.004 21.744 54.0127 21.8662 53.9972C21.9883 53.9816 22.1062 53.9422 22.2132 53.8811C22.3201 53.82 22.4139 53.7384 22.4893 53.6411C22.5647 53.5437 22.6202 53.4324 22.6526 53.3136ZM21.5292 57.434L21.8992 56.0771C21.9646 55.8372 21.932 55.5811 21.8087 55.3651C21.6853 55.1492 21.4812 54.9911 21.2412 54.9257C21.0013 54.8602 20.7452 54.8928 20.5292 55.0162C20.3133 55.1396 20.1552 55.3437 20.0898 55.5836L19.7199 56.9405C19.6875 57.0593 19.6788 57.1833 19.6944 57.3055C19.7099 57.4276 19.7493 57.5455 19.8104 57.6525C19.8715 57.7594 19.9531 57.8532 20.0504 57.9286C20.1478 58.004 20.2591 58.0595 20.3779 58.0919C20.4967 58.1243 20.6207 58.133 20.7429 58.1175C20.865 58.1019 20.9829 58.0625 21.0899 58.0014C21.1968 57.9403 21.2906 57.8588 21.366 57.7614C21.4414 57.664 21.4968 57.5528 21.5292 57.434ZM16.8366 47.627L17.6428 46.4753C17.7134 46.3744 17.7635 46.2606 17.7901 46.1404C17.8167 46.0202 17.8194 45.8959 17.798 45.7747C17.7766 45.6534 17.7316 45.5376 17.6654 45.4337C17.5992 45.3299 17.5132 45.2401 17.4124 45.1695C17.3115 45.0989 17.1977 45.0488 17.0775 45.0222C16.9573 44.9956 16.833 44.9929 16.7118 45.0143C16.5905 45.0357 16.4747 45.0808 16.3708 45.1469C16.267 45.2131 16.1772 45.2991 16.1066 45.3999L15.3004 46.5521C15.2288 46.653 15.1778 46.767 15.1504 46.8876C15.1231 47.0082 15.1199 47.133 15.1409 47.2549C15.162 47.3767 15.207 47.4932 15.2733 47.5976C15.3396 47.702 15.4259 47.7922 15.5273 47.8631C15.6286 47.934 15.743 47.9842 15.8638 48.0107C15.9846 48.0372 16.1094 48.0395 16.2311 48.0176C16.3528 47.9956 16.469 47.9498 16.5729 47.8828C16.6768 47.8157 16.7664 47.7288 16.8366 47.627ZM13.6866 52.127L15.0366 50.1983C15.1071 50.0975 15.1572 49.9836 15.1838 49.8634C15.2104 49.7432 15.213 49.6189 15.1916 49.4977C15.1702 49.3764 15.125 49.2606 15.0588 49.1568C14.9926 49.0529 14.9066 48.9632 14.8057 48.8926C14.7049 48.822 14.5911 48.772 14.4708 48.7454C14.3506 48.7188 14.2263 48.7161 14.1051 48.7376C13.9838 48.759 13.868 48.8041 13.7642 48.8703C13.6603 48.9365 13.5706 49.0225 13.5 49.1234L12.15 51.052C12.0096 51.2558 11.9554 51.5069 11.9993 51.7504C12.0433 51.994 12.1817 52.2103 12.3845 52.3522C12.5873 52.4941 12.838 52.55 13.0818 52.5078C13.3257 52.4656 13.5433 52.3287 13.6866 52.127ZM11.0803 55.85L11.8866 54.6978C12.027 54.494 12.0812 54.2429 12.0372 53.9994C11.9933 53.7558 11.8548 53.5395 11.6521 53.3976C11.4493 53.2558 11.1986 53.1998 10.9547 53.242C10.7109 53.2842 10.4936 53.4212 10.3503 53.6229L9.54403 54.7747C9.47343 54.8755 9.42338 54.9893 9.39675 55.1095C9.37012 55.2297 9.36742 55.354 9.38882 55.4753C9.41022 55.5965 9.45529 55.7124 9.52146 55.8162C9.58763 55.92 9.6736 56.0098 9.77447 56.0804C9.87534 56.151 9.98912 56.2011 10.1093 56.2277C10.2295 56.2543 10.3538 56.257 10.4751 56.2356C10.5963 56.2142 10.7122 56.1691 10.816 56.103C10.9198 56.0368 11.0097 55.9508 11.0803 55.85ZM37.1791 49.1362C37.2979 49.1039 37.4091 49.0484 37.5065 48.973C37.6038 48.8976 37.6854 48.8038 37.7465 48.6969C37.8076 48.59 37.847 48.4721 37.8625 48.3499C37.878 48.2278 37.8693 48.1038 37.8369 47.985L37.467 46.6282C37.4016 46.3882 37.2435 46.1841 37.0275 46.0607C36.8116 45.9373 36.5555 45.9048 36.3156 45.9702C36.0756 46.0357 35.8715 46.1937 35.7481 46.4097C35.6247 46.6256 35.5922 46.8817 35.6576 47.1217L36.0281 48.4781C36.0603 48.597 36.1156 48.7084 36.191 48.8059C36.2663 48.9034 36.3602 48.985 36.4671 49.0462C36.5741 49.1073 36.6921 49.1467 36.8143 49.1621C36.9365 49.1775 37.0603 49.1689 37.1791 49.1362ZM38.4983 53.9719C38.7382 53.9063 38.9422 53.7483 39.0656 53.5324C39.1889 53.3165 39.2215 53.0604 39.1562 52.8205L38.5909 50.7487C38.5254 50.5087 38.3674 50.3046 38.1515 50.1812C37.9355 50.0578 37.6794 50.0252 37.4395 50.0907C37.1995 50.1561 36.9954 50.3142 36.872 50.5301C36.7486 50.746 36.7161 51.0021 36.7815 51.2421L37.3468 53.3139C37.379 53.4328 37.4344 53.5442 37.5098 53.6416C37.5851 53.7391 37.6789 53.8207 37.7859 53.8818C37.8928 53.9429 38.0108 53.9823 38.133 53.9978C38.2552 54.0132 38.3796 54.0045 38.4983 53.9719ZM39.6217 58.0922C39.7405 58.0598 39.8518 58.0043 39.9491 57.9289C40.0465 57.8535 40.128 57.7597 40.1891 57.6528C40.2502 57.5459 40.2896 57.428 40.3051 57.3059C40.3206 57.1837 40.3119 57.0597 40.2795 56.9409L39.9094 55.5844C39.8439 55.3444 39.6859 55.1403 39.4699 55.0169C39.254 54.8935 38.9979 54.861 38.7579 54.9264C38.518 54.9919 38.3139 55.15 38.1905 55.3659C38.0671 55.5818 38.0346 55.8379 38.1 56.0779L38.4699 57.4347C38.5021 57.5536 38.5575 57.665 38.6328 57.7625C38.7082 57.8599 38.802 57.9416 38.909 58.0027C39.0159 58.0638 39.1339 58.1032 39.2561 58.1186C39.3783 58.134 39.503 58.1248 39.6217 58.0922ZM44.4686 47.8579C44.6723 47.7153 44.8111 47.4977 44.8544 47.2529C44.8976 47.008 44.8419 46.756 44.6993 46.5523L43.8931 45.4001C43.7505 45.1964 43.5328 45.0577 43.2879 45.0145C43.0431 44.9713 42.7911 45.0271 42.5873 45.1697C42.3836 45.3123 42.2449 45.53 42.2017 45.7748C42.1585 46.0197 42.2143 46.2717 42.3569 46.4754L43.1632 47.6272C43.3057 47.8309 43.5233 47.9696 43.7682 48.0129C44.013 48.0562 44.2649 48.0004 44.4686 47.8579ZM47.6186 52.3579C47.8223 52.2153 47.9611 51.9977 48.0044 51.7529C48.0476 51.508 47.9919 51.256 47.8493 51.0523L46.5 49.1234C46.4298 49.0216 46.3402 48.9346 46.2363 48.8676C46.1323 48.8006 46.0162 48.7547 45.8945 48.7328C45.7728 48.7108 45.6479 48.7132 45.5271 48.7397C45.4063 48.7662 45.292 48.8163 45.1906 48.8872C45.0893 48.9581 45.003 49.0484 44.9367 49.1528C44.8704 49.2572 44.8254 49.3737 44.8043 49.4955C44.7832 49.6174 44.7864 49.7422 44.8138 49.8628C44.8412 49.9834 44.8921 50.0974 44.9637 50.1982L46.3137 52.1269C46.4563 52.3306 46.6739 52.4693 46.9187 52.5126C47.1636 52.5559 47.4149 52.5004 47.6186 52.3579ZM50.2249 56.0809C50.4286 55.9382 50.5674 55.7205 50.6106 55.4756C50.6539 55.2307 50.5981 54.9787 50.4556 54.7748L49.6493 53.6231C49.5788 53.5222 49.489 53.4362 49.3852 53.37C49.2814 53.3037 49.1656 53.2586 49.0444 53.2371C48.9231 53.2157 48.7988 53.2183 48.6786 53.2449C48.5584 53.2714 48.4446 53.3214 48.3436 53.392C48.2427 53.4625 48.1567 53.5523 48.0905 53.6561C48.0242 53.7599 47.9791 53.8757 47.9577 53.997C47.9362 54.1182 47.9388 54.2425 47.9654 54.3627C47.992 54.483 48.0419 54.5968 48.1125 54.6977L48.9188 55.8499C49.0613 56.0536 49.2789 56.1923 49.5237 56.2356C49.7685 56.2788 50.0212 56.2234 50.2249 56.0809ZM53.4375 0.9375H6.5625C5.81683 0.938319 5.10194 1.2349 4.57467 1.76217C4.0474 2.28944 3.75082 3.00433 3.75 3.75V5.625C3.75082 6.37067 4.0474 7.08556 4.57467 7.61283C5.10194 8.1401 5.81683 8.43668 6.5625 8.4375H15V11.25C15.0015 12.4928 15.4958 13.6842 16.3746 14.5629C17.2533 15.4417 18.4447 15.936 19.6875 15.9375H19.8929L21.8161 23.6389C22.0701 24.6524 22.6554 25.552 23.4791 26.1949C24.3028 26.8379 25.3176 27.1872 26.3625 27.1875H27.1875V29.0625H24.2062C23.2399 29.0638 22.2975 29.3627 21.5071 29.9186C20.7167 30.4745 20.1167 31.2604 19.7888 32.1694L17.7826 37.7944C17.5296 38.5023 17.4505 39.2606 17.5519 40.0054C17.6533 40.7503 17.9323 41.4599 18.3653 42.0743C18.7984 42.6888 19.3728 43.1902 20.0401 43.5362C20.7075 43.8822 21.4483 44.0627 22.2 44.0625H26.25C26.25 44.3111 26.3488 44.5496 26.5246 44.7254C26.7004 44.9012 26.9389 45 27.1875 45H32.8125C33.0611 45 33.2996 44.9012 33.4754 44.7254C33.6512 44.5496 33.75 44.3111 33.75 44.0625H37.8C38.5517 44.0627 39.2925 43.8822 39.9599 43.5362C40.6272 43.1902 41.2016 42.6888 41.6347 42.0743C42.0677 41.4599 42.3467 40.7503 42.4481 40.0054C42.5495 39.2606 42.4704 38.5023 42.2174 37.7944L40.2112 32.1675C39.883 31.2589 39.2829 30.4733 38.4925 29.9178C37.7021 29.3622 36.7598 29.0636 35.7938 29.0625H32.8125V27.1875H33.6375C34.6828 27.1871 35.698 26.8374 36.5218 26.1939C37.3456 25.5505 37.9308 24.6502 38.1844 23.6362L40.1071 15.9375H40.3125C41.5553 15.936 42.7467 15.4417 43.6254 14.5629C44.5042 13.6842 44.9985 12.4928 45 11.25V8.4375H53.4375C54.1832 8.43668 54.8981 8.1401 55.4253 7.61283C55.9526 7.08556 56.2492 6.37067 56.25 5.625V3.75C56.2492 3.00433 55.9526 2.28944 55.4253 1.76217C54.8981 1.2349 54.1832 0.938319 53.4375 0.9375ZM32.8125 37.5H27.1875C26.9389 37.5 26.7004 37.5988 26.5246 37.7746C26.3488 37.9504 26.25 38.1889 26.25 38.4375H23.5299L24.8671 34.6875H35.1327L36.4699 38.4375H33.75C33.75 38.1889 33.6512 37.9504 33.4754 37.7746C33.2996 37.5988 33.0611 37.5 32.8125 37.5ZM28.125 43.125V39.375H31.875V43.125H28.125ZM38.4453 32.7992L40.4515 38.4242C40.6036 38.8491 40.6513 39.3044 40.5906 39.7517C40.5298 40.1989 40.3624 40.625 40.1024 40.994C39.8424 41.3629 39.4976 41.664 39.0969 41.8717C38.6961 42.0794 38.2514 42.1877 37.8 42.1875H33.75V40.3125H37.8C37.9502 40.3125 38.0982 40.2764 38.2315 40.2073C38.3649 40.1381 38.4797 40.038 38.5662 39.9152C38.6528 39.7925 38.7085 39.6507 38.7289 39.5019C38.7492 39.3531 38.7335 39.2016 38.683 39.0601L36.6768 33.4351C36.6118 33.2529 36.4921 33.0953 36.334 32.9838C36.1759 32.8723 35.9872 32.8125 35.7938 32.8125H24.2062C24.0128 32.8125 23.8241 32.8723 23.666 32.9838C23.5079 33.0953 23.3882 33.2529 23.3232 33.4351L21.317 39.0601C21.2665 39.2016 21.2508 39.3531 21.2711 39.5019C21.2915 39.6507 21.3472 39.7925 21.4338 39.9152C21.5203 40.038 21.6351 40.1381 21.7685 40.2073C21.9018 40.2764 22.0498 40.3125 22.2 40.3125H26.25V42.1875H22.2C21.7487 42.1877 21.3039 42.0794 20.9032 41.8716C20.5025 41.6639 20.1577 41.3628 19.8977 40.9939C19.6378 40.6249 19.4704 40.1989 19.4096 39.7516C19.3489 39.3044 19.3966 38.8491 19.5487 38.4242L21.5541 32.8011C21.751 32.2555 22.1113 31.7839 22.5859 31.4505C23.0605 31.117 23.6262 30.9379 24.2062 30.9375H35.7938C36.3734 30.9379 36.9389 31.1168 37.4133 31.4499C37.8877 31.783 38.248 32.2541 38.4453 32.7992ZM30.9375 29.0625H29.0625V27.1875H30.9375V29.0625ZM36.3656 23.1793C36.2137 23.7881 35.8627 24.3286 35.3684 24.7151C34.8741 25.1015 34.2649 25.3118 33.6375 25.3125H26.3625C25.7354 25.312 25.1265 25.1021 24.6322 24.7162C24.138 24.3302 23.7868 23.7903 23.6344 23.182L21.825 15.9375H23.625L25.1475 22.7062C25.1943 22.9139 25.3104 23.0995 25.4767 23.2324C25.643 23.3653 25.8496 23.4376 26.0625 23.4375H33.9375C34.1503 23.4375 34.3568 23.3651 34.523 23.2322C34.6892 23.0993 34.8053 22.9139 34.8521 22.7062L36.375 15.9375H38.175L36.3656 23.1793ZM34.4531 15.9375L33.1875 21.5625H32.8125V15.9375H34.4531ZM30.9375 21.5625H29.0625V15.9375H30.9375V21.5625ZM27.1875 21.5625H26.8125L25.5469 15.9375H27.1875V21.5625ZM43.125 11.25C43.1242 11.9957 42.8276 12.7106 42.3003 13.2378C41.7731 13.7651 41.0582 14.0617 40.3125 14.0625H19.6875C18.9418 14.0617 18.2269 13.7651 17.6997 13.2378C17.1724 12.7106 16.8758 11.9957 16.875 11.25V8.4375H43.125V11.25ZM54.375 5.625C54.3747 5.87354 54.2758 6.11181 54.1001 6.28756C53.9243 6.4633 53.686 6.56218 53.4375 6.5625H6.5625C6.31396 6.56218 6.07569 6.4633 5.89994 6.28756C5.7242 6.11181 5.62532 5.87354 5.625 5.625V3.75C5.62532 3.50146 5.7242 3.26319 5.89994 3.08744C6.07569 2.9117 6.31396 2.81282 6.5625 2.8125H53.4375C53.686 2.81282 53.9243 2.9117 54.1001 3.08744C54.2758 3.26319 54.3747 3.50146 54.375 3.75V5.625Z" fill="#D6AD60"/>
</svg>
