<svg width="60" height="60" viewBox="0 0 60 60" fill="none" xmlns="http://www.w3.org/2000/svg">
<path d="M11.5183 27.6709C12.8454 27.6247 14.1017 27.0706 15.0318 26.1342C17.0682 28.1896 20.3865 28.1886 22.4222 26.1345C23.3973 27.1186 24.7192 27.675 26.116 27.6754H26.1162C26.6016 27.6754 26.9951 27.2822 26.9952 26.7968C26.9953 26.3114 26.6021 25.9178 26.1167 25.9177C25.0871 25.9173 24.1183 25.4602 23.4588 24.6632C23.2016 24.3522 22.8237 24.1738 22.4222 24.1738C22.0207 24.1738 21.6429 24.3522 21.3854 24.6632C20 26.3373 17.4514 26.334 16.0685 24.6632C15.5271 24.0089 14.5335 24.0125 13.9953 24.6632C13.3565 25.4351 12.455 25.8793 11.4572 25.914C10.972 25.9309 10.5924 26.3379 10.6094 26.8229C10.6263 27.3082 11.0328 27.6873 11.5183 27.6709Z" fill="#D6AD60"/>
<path d="M11.5183 22.5915C12.8456 22.5453 14.1019 21.9913 15.032 21.0548C16.5708 22.6056 18.9263 23.0375 20.9174 22.1142C21.3578 21.9099 21.5493 21.3874 21.3449 20.9471C21.1408 20.5068 20.6185 20.3155 20.1779 20.5195C18.7587 21.1777 17.069 20.7929 16.0688 19.584C15.5274 18.9299 14.5336 18.9333 13.9956 19.584C13.3566 20.3561 12.4552 20.8003 11.4575 20.8349C10.9724 20.8518 10.5927 21.2586 10.6097 21.7438C10.6264 22.2287 11.0383 22.6068 11.5183 22.5915Z" fill="#D6AD60"/>
<path d="M59.9079 21.1038C57.3162 14.5992 51.4398 10.0967 44.6963 9.15892V8.32128C44.6963 6.84369 43.4942 5.6416 42.0166 5.6416C40.539 5.6416 39.3368 6.84369 39.3368 8.32128V9.15892C37.1825 9.45856 35.105 10.1192 33.1764 11.119H23.3228C22.8373 11.119 22.4439 11.5125 22.4439 11.9978C22.4439 12.4832 22.8373 12.8767 23.3228 12.8767H30.3941C29.6933 13.4083 28.9475 14.0583 28.2946 14.7206H8.69536C8.27537 14.7206 7.91409 15.0178 7.833 15.43L4.0076 34.879C3.90097 35.4216 4.31686 35.9274 4.86997 35.9274H14.8203V37.7713H2.68048C2.1003 37.7713 1.6639 37.24 1.77593 36.6714L6.30959 13.6206C6.39432 13.1895 6.77482 12.8766 7.21414 12.8766H19.1207C19.6062 12.8766 19.9996 12.4831 19.9996 11.9977C19.9996 11.5123 19.6062 11.1188 19.1207 11.1188H7.21414C5.93706 11.1188 4.83118 12.0284 4.58474 13.2815L0.0513147 36.3321C-0.274812 37.9886 0.995124 39.5291 2.6806 39.5291H14.8204V41.5939C14.8204 42.0793 15.2138 42.4728 15.6993 42.4728C16.1848 42.4728 16.5782 42.0793 16.5782 41.5939V39.5291H20.343V41.5939C20.343 42.0793 20.7364 42.4728 21.2219 42.4728C21.7074 42.4728 22.1008 42.0793 22.1008 41.5939V39.5291H39.337V42.0114H30.8513C29.3737 42.0114 28.1717 43.2135 28.1717 44.6912C28.1717 45.893 28.9668 46.9124 30.0586 47.2511V51.6783C30.0586 53.1559 31.2608 54.358 32.7384 54.358C34.216 54.358 35.418 53.1559 35.418 51.6783V47.3709H48.2462V51.6783C48.2462 53.1559 49.4483 54.358 50.9259 54.358C52.4035 54.358 53.6057 53.1559 53.6057 51.6783V45.4341L59.0809 36.3173C59.4387 35.7216 59.5489 35.017 59.3955 34.3415L58.4152 29.3564C58.3217 28.8801 57.8594 28.5697 57.3831 28.6636C56.9069 28.7572 56.5967 29.2193 56.6903 29.6955L57.2004 32.2888C56.5602 32.188 55.8997 32.3341 55.3914 32.6461L53.4673 22.8622H55.3463L55.8638 25.4935C55.9576 25.9696 56.4199 26.28 56.8959 26.1863C57.3721 26.0926 57.6823 25.6306 57.5887 25.1543L57.1379 22.8622H58.7126C59.618 22.8623 60.244 21.9475 59.9079 21.1038ZM44.6963 39.5291H50.9L49.4091 42.0114H44.6962L44.6963 39.5291ZM51.9557 37.7713H44.6963V35.9274H53.063C52.6791 36.5669 52.341 37.1299 51.9557 37.7713ZM38.8681 21.1045C39.6599 13.247 41.4212 10.7505 42.0098 10.7315H42.0235C42.6119 10.7504 44.3732 13.2468 45.1653 21.1045C44.3546 21.1045 39.7955 21.1045 38.8681 21.1045ZM32.7522 21.1045C34.0008 16.331 36.4217 12.7999 39.2724 11.3973C38.0144 14.0461 37.3886 18.2021 37.1026 21.1045H32.7522ZM26.0324 21.1045C27.9412 16.8208 31.4686 13.5648 35.6358 11.9313C33.2406 14.379 31.7465 17.7909 30.9393 21.1045H26.0324ZM46.9308 21.1045C46.6442 18.1976 46.018 14.044 44.7609 11.3972C47.6115 12.7997 50.0323 16.3309 51.2811 21.1045H46.9308ZM41.0946 8.99521V8.32128C41.0946 7.81293 41.5082 7.39938 42.0166 7.39938C42.525 7.39938 42.9385 7.81293 42.9385 8.32128V8.99521C42.3541 8.96755 41.7239 8.96568 41.0946 8.99521ZM9.41816 16.4784H26.7626C25.6805 17.8822 24.7906 19.4341 24.1255 21.1035C23.7896 21.946 24.4141 22.8623 25.3207 22.8623H39.3367V34.1696H22.1006V33.3101C22.1006 31.3029 20.4677 29.67 18.4605 29.67C17.357 29.67 16.3674 30.1642 15.6993 30.9421C15.0312 30.1641 14.0416 29.67 12.9381 29.67C10.9308 29.67 9.29793 31.3029 9.29793 33.3101V34.1696H5.93858L9.41816 16.4784ZM14.8203 34.1696H11.0555V33.3101C11.0555 32.2722 11.8999 31.4277 12.9378 31.4277C13.9757 31.4277 14.8202 32.2722 14.8202 33.3101L14.8203 34.1696ZM20.3429 34.1696H16.5781V33.3101C16.5781 32.2722 17.4225 31.4277 18.4604 31.4277C19.4983 31.4277 20.3428 32.2722 20.3428 33.3101L20.3429 34.1696ZM16.5781 37.7713V35.9274H20.3429V37.7713H16.5781ZM22.1006 37.7713V35.9274H39.3368V37.7713H22.1006ZM41.0946 22.8623H42.9385V42.0114H41.0946C41.0946 40.2309 41.0946 25.1074 41.0946 22.8623ZM33.6602 51.6782C33.6602 52.1865 33.2466 52.6001 32.7383 52.6001C32.2298 52.6001 31.8162 52.1865 31.8162 51.6782V47.3708H33.6602V51.6782ZM51.8478 51.6782C51.8478 52.1865 51.4342 52.6001 50.9258 52.6001C50.4174 52.6001 50.0039 52.1865 50.0039 51.6782V47.3708H50.9258C51.2148 47.3708 51.5431 47.3183 51.8478 47.2054V51.6782ZM57.2581 34.1473C57.6937 34.4088 57.8362 34.9755 57.5738 35.4123L51.9733 44.7376L51.9732 44.7378L51.7162 45.1657C51.5505 45.4416 51.2477 45.613 50.9258 45.613C48.45 45.613 33.3046 45.613 30.8512 45.613C30.3429 45.613 29.9293 45.1995 29.9293 44.6911C29.9293 44.1828 30.3429 43.7691 30.8512 43.7691H49.9066C50.2153 43.7691 50.5012 43.6073 50.6601 43.3427C51.5934 41.7888 54.4756 36.9895 55.3695 35.501L55.993 34.463C56.2544 34.0276 56.8193 33.8837 57.2581 34.1473ZM53.8993 34.1696H44.6963V22.8623H51.6755L53.8993 34.1696ZM53.094 21.1045C52.2866 17.7903 50.7924 14.3787 48.3976 11.9313C52.506 13.5416 56.06 16.7484 58.0009 21.1045C56.2646 21.1045 54.8304 21.1045 53.094 21.1045Z" fill="#D6AD60"/>
</svg>
