<svg width="60" height="60" viewBox="0 0 60 60" fill="none" xmlns="http://www.w3.org/2000/svg">
<g clip-path="url(#clip0_777_1115)">
<path d="M37.0425 1.78165C40.717 1.80053 44.0562 3.12655 46.4449 5.51538C47.0941 6.16461 47.671 6.8876 48.1596 7.66416C48.3288 7.93331 48.6184 8.08083 48.9144 8.08083C49.0765 8.08083 49.2405 8.03665 49.3878 7.944C49.8043 7.68198 49.9296 7.13216 49.6675 6.71562C49.1082 5.82646 48.4478 4.99882 47.7048 4.25564C44.9819 1.53269 41.1986 0.0213797 37.0517 0C37.0501 0 37.0486 0 37.047 0C36.5571 0 36.1588 0.395882 36.1563 0.88619C36.1538 1.37828 36.5505 1.77915 37.0425 1.78165Z" fill="#D6AD60"/>
<path d="M14.4997 41.5643C15.8685 40.2296 17.659 39.3108 20.1242 38.6795C20.6008 38.5574 20.8883 38.072 20.7661 37.5955C20.644 37.119 20.1593 36.8315 19.6822 36.9535C17.2139 37.5857 15.3241 38.4933 13.8113 39.7811L12.1717 38.1415C14.8665 34.9734 15.4463 30.685 16.057 26.1619C16.1233 25.6713 16.1899 25.1785 16.2594 24.6844C16.8643 27.4239 18.1784 29.8703 20.1344 31.8264C20.3696 32.0616 20.6153 32.2905 20.8645 32.5068C21.033 32.653 21.2409 32.7246 21.4478 32.7246C21.6971 32.7246 21.945 32.6206 22.121 32.4176C22.4435 32.0459 22.4035 31.4833 22.0318 31.1609C21.8144 30.9722 21.5997 30.7723 21.3942 30.5667C18.645 27.8176 17.3421 23.9381 17.7248 19.6427C17.8659 18.0598 18.2298 16.4907 18.7964 14.9725C18.7983 14.9686 18.8 14.9647 18.8018 14.9608C18.8253 14.9112 18.8433 14.8606 18.8571 14.8096C19.8539 12.2115 21.4479 9.76787 23.5471 7.66886C26.3736 4.84234 29.804 2.93621 33.4671 2.1568C33.9484 2.05442 34.2556 1.58133 34.1531 1.10005C34.0507 0.618767 33.5764 0.312087 33.0964 0.414115C29.0956 1.26539 25.3579 3.33839 22.2872 6.409C19.9806 8.71563 18.2346 11.4123 17.1514 14.2848C15.3459 18.1186 14.8095 22.0858 14.2913 25.9236C13.6522 30.6573 13.1002 34.7454 10.3078 37.5378L7.00068 40.8445C6.65279 41.1924 6.65279 41.7565 7.00068 42.1043C7.3487 42.4522 7.91265 42.4522 8.26054 42.1043L10.9376 39.427L12.5334 41.0228L3.82128 49.7349L2.2254 48.1392L6.38993 43.9748C6.73783 43.6269 6.73783 43.0628 6.38993 42.715C6.04204 42.3671 5.47809 42.3671 5.13007 42.715L0.335784 47.5094C0.168784 47.6764 0.0749512 47.903 0.0749512 48.1393C0.0749512 48.3755 0.168784 48.6022 0.335784 48.7692L3.19141 51.6248C3.36541 51.7987 3.59346 51.8857 3.8214 51.8857C4.04933 51.8857 4.27738 51.7988 4.45138 51.6248L14.4233 41.6528C14.4513 41.6249 14.4762 41.5949 14.4997 41.5643Z" fill="#D6AD60"/>
<path d="M24.9918 19.4099C24.6438 19.062 24.0799 19.062 23.732 19.4099L22.5809 20.5609L20.2906 18.2707C19.9425 17.9228 19.3786 17.9228 19.0307 18.2707C18.6828 18.6186 18.6828 19.1827 19.0307 19.5304L21.3211 21.8208L19.3079 23.8339C18.96 24.1818 18.96 24.7459 19.3079 25.0937C19.4819 25.2676 19.71 25.3546 19.9379 25.3546C20.1658 25.3546 20.3939 25.2677 20.5679 25.0937L22.581 23.0805L22.8286 23.3281C23.0026 23.502 23.2306 23.589 23.4586 23.589C23.6865 23.589 23.9145 23.5021 24.0886 23.3281C24.4364 22.9802 24.4364 22.4161 24.0886 22.0683L23.8409 21.8207L24.992 20.6696C25.3397 20.3217 25.3397 19.7576 24.9918 19.4099Z" fill="#D6AD60"/>
<path d="M34.1502 4.41219L36.4396 6.70172L35.4513 7.69018C35.1034 8.03808 35.1034 8.60215 35.4513 8.94992C35.6253 9.12381 35.8534 9.21088 36.0813 9.21088C36.3092 9.21088 36.5373 9.12393 36.7113 8.94992L37.6996 7.96159L38.145 8.407C38.319 8.581 38.547 8.66795 38.775 8.66795C39.003 8.66795 39.231 8.581 39.405 8.407C39.7529 8.0591 39.7529 7.49503 39.405 7.14725L38.9595 6.70172L40.9726 4.68858C41.3205 4.34069 41.3205 3.77662 40.9726 3.42884C40.6246 3.08095 40.0607 3.08095 39.7128 3.42884L37.6996 5.44198L35.4102 3.15257C35.0622 2.80467 34.4982 2.80455 34.1503 3.15257C33.8024 3.50023 33.8024 4.0643 34.1502 4.41219Z" fill="#D6AD60"/>
<path d="M32.5047 10.3256C32.6787 10.4995 32.9068 10.5865 33.1347 10.5865C33.3627 10.5865 33.5907 10.4996 33.7647 10.3256C34.1126 9.97768 34.1126 9.41361 33.7647 9.06584L31.4005 6.70159L33.1869 4.9152C33.5348 4.5673 33.5348 4.00323 33.1869 3.65545C32.8388 3.30756 32.2749 3.30756 31.927 3.65545L30.1406 5.44185L29.7888 5.09003C29.4408 4.74214 28.8768 4.74214 28.5289 5.09003C28.181 5.43793 28.181 6.002 28.5289 6.34978L28.8809 6.70171L26.3605 9.22203L25.4788 8.34023C25.1309 7.99233 24.5669 7.99233 24.2189 8.34023C23.871 8.68813 23.871 9.2522 24.2189 9.59997L25.1008 10.4819L22.5812 13.0015L22.2284 12.6487C21.8804 12.3008 21.3165 12.3008 20.9686 12.6487C20.6207 12.9966 20.6207 13.5607 20.9686 13.9085L21.3213 14.2612L19.5341 16.0485C19.1862 16.3964 19.1862 16.9604 19.5341 17.3082C19.7081 17.4821 19.9362 17.5692 20.1641 17.5692C20.392 17.5692 20.6201 17.4822 20.7941 17.3082L22.5813 15.521L24.9058 17.8454C25.0798 18.0193 25.3078 18.1064 25.5358 18.1064C25.7637 18.1064 25.9917 18.0194 26.1658 17.8454C26.5137 17.4975 26.5137 16.9335 26.1658 16.5857L23.8412 14.2611L26.3608 11.7415L28.4477 13.8284C28.6217 14.0024 28.8496 14.0894 29.0777 14.0894C29.3056 14.0894 29.5337 14.0024 29.7077 13.8284C30.0556 13.4805 30.0556 12.9164 29.7077 12.5687L27.6206 10.4816L30.141 7.96121L32.5047 10.3256Z" fill="#D6AD60"/>
<path d="M45.5367 42.966C48.4523 41.8864 51.1906 40.1252 53.5281 37.7877C61.1292 30.1865 62.095 18.7842 55.6811 12.3701C49.2667 5.95608 37.8646 6.92197 30.2634 14.5231C27.9569 16.8296 26.2109 19.5262 25.1277 22.3985C23.3221 26.2323 22.7856 30.1998 22.2675 34.0375C21.6282 38.7713 21.0763 42.8594 18.2838 45.6518L8.31186 55.6238C8.14486 55.7908 8.05103 56.0175 8.05103 56.2537C8.05103 56.49 8.14486 56.7166 8.31186 56.8836L11.1675 59.7392C11.3415 59.9131 11.5695 60.0002 11.7975 60.0002C12.0254 60.0002 12.2535 59.9132 12.4275 59.7392L22.3993 49.7672C22.4274 49.7392 22.4523 49.7092 22.4759 49.6786C25.266 46.9577 29.3191 46.4089 34.0059 45.776C37.8077 45.2625 41.7366 44.7311 45.5367 42.966ZM31.5233 15.7828C35.4018 11.9043 40.3405 9.89957 44.9395 9.89957C48.5299 9.89957 51.9137 11.1224 54.4211 13.6299C60.1404 19.3493 59.1746 29.6212 52.2681 36.5278C50.1841 38.6119 47.7603 40.1975 45.183 41.1957C45.1104 41.2097 45.0383 41.2321 44.9686 41.2652C44.9279 41.2846 44.8869 41.3031 44.8462 41.3221C43.3648 41.8637 41.8361 42.2126 40.2943 42.35C35.9989 42.7322 32.1194 41.4296 29.3703 38.6806C26.6211 35.9315 25.3181 32.0521 25.7008 27.7566C25.8419 26.1735 26.206 24.6042 26.7727 23.0859C26.7745 23.0822 26.7761 23.0784 26.7779 23.0746C26.8014 23.0253 26.8191 22.9748 26.833 22.924C27.83 20.3258 29.4241 17.8821 31.5233 15.7828ZM11.7975 57.8494L10.2016 56.2536L18.9138 47.5415L20.5096 49.1372L11.7975 57.8494ZM21.7876 47.8957L20.1477 46.2557C22.8425 43.0876 23.4223 38.799 24.0331 34.2759C24.0994 33.7854 24.1659 33.2927 24.2355 32.7986C24.8404 35.538 26.1543 37.9846 28.1105 39.9406C30.0615 41.8916 32.5005 43.2028 35.2314 43.8099C34.7419 43.8788 34.2536 43.9447 33.7674 44.0104C29.2443 44.621 24.9558 45.2009 21.7876 47.8957Z" fill="#D6AD60"/>
<path d="M28.1399 25.6846C28.3678 25.6846 28.5959 25.5977 28.7699 25.4236L30.5571 23.6364L33.0767 26.156L30.5571 28.6755L28.2669 26.3853C27.9189 26.0374 27.3549 26.0374 27.007 26.3853C26.6591 26.7332 26.6591 27.2972 27.007 27.645L29.2974 29.9354L27.2841 31.9486C26.9362 32.2965 26.9362 32.8606 27.2841 33.2084C27.4581 33.3824 27.6861 33.4693 27.9141 33.4693C28.142 33.4693 28.3701 33.3824 28.5441 33.2084L30.5572 31.1952L33.0768 33.7148L30.0423 36.7493C29.6945 37.0972 29.6945 37.6613 30.0423 38.0091C30.2164 38.183 30.4444 38.27 30.6723 38.27C30.9003 38.27 31.1283 38.1831 31.3023 38.0091L34.3367 34.9747L36.8563 37.4943L34.8432 39.5074C34.4953 39.8553 34.4953 40.4194 34.8432 40.7672C35.0172 40.9412 35.2451 41.0281 35.4732 41.0281C35.7011 41.0281 35.9291 40.9412 36.1031 40.7672L38.1163 38.754L40.4065 41.0443C40.5805 41.2183 40.8085 41.3052 41.0365 41.3052C41.2645 41.3052 41.4925 41.2183 41.6665 41.0443C42.0144 40.6964 42.0144 40.1323 41.6665 39.7845L39.3761 37.4942L41.8958 34.9746L44.4154 37.4942L42.6281 39.2814C42.2802 39.6293 42.2802 40.1934 42.6281 40.5411C42.8021 40.715 43.0302 40.8021 43.2581 40.8021C43.486 40.8021 43.7141 40.7151 43.8881 40.5411L45.6753 38.7539L46.028 39.1066C46.202 39.2804 46.4299 39.3675 46.658 39.3675C46.8859 39.3675 47.114 39.2806 47.288 39.1066C47.6359 38.7587 47.6359 38.1946 47.288 37.8468L46.9353 37.4942L49.4549 34.9746L50.3367 35.8564C50.5107 36.0303 50.7388 36.1173 50.9667 36.1173C51.1946 36.1173 51.4227 36.0304 51.5967 35.8564C51.9446 35.5085 51.9446 34.9444 51.5967 34.5966L50.7148 33.7147L53.2351 31.1944L53.5869 31.5462C53.7609 31.7201 53.989 31.8072 54.2169 31.8072C54.4448 31.8072 54.6729 31.7202 54.8469 31.5462C55.1948 31.1983 55.1948 30.6342 54.8469 30.2865L54.4951 29.9346L56.2816 28.1481C56.6295 27.8002 56.6295 27.2362 56.2816 26.8884C55.9336 26.5405 55.3696 26.5405 55.0217 26.8884L53.2353 28.6748L50.7157 26.1552L53.2353 23.6356L55.5247 25.925C55.6988 26.0989 55.9268 26.1859 56.1547 26.1859C56.3827 26.1859 56.6107 26.099 56.7847 25.925C57.1326 25.5771 57.1326 25.013 56.7847 24.6653L54.4952 22.3757L56.5083 20.3626C56.8562 20.0147 56.8562 19.4506 56.5083 19.1028C56.1604 18.7551 55.5965 18.7548 55.2485 19.1028L53.2353 21.116L50.7157 18.5964L53.7502 15.5619C54.0981 15.214 54.0981 14.6499 53.7502 14.3021C53.4022 13.9542 52.8383 13.9542 52.4904 14.3021L49.456 17.3366L46.9364 14.817L48.9496 12.8038C49.2975 12.4559 49.2975 11.8918 48.9496 11.544C48.6017 11.1961 48.0378 11.1961 47.6898 11.544L45.6766 13.5572L43.3872 11.2678C43.0391 10.9197 42.4751 10.92 42.1274 11.2678C41.7795 11.6157 41.7795 12.1797 42.1274 12.5275L44.4169 14.817L41.8973 17.3366L39.3777 14.817L41.1642 13.0305C41.5121 12.6826 41.5121 12.1186 41.1642 11.7708C40.8162 11.4229 40.2522 11.4229 39.9043 11.7708L38.1179 13.5572L37.766 13.2052C37.418 12.8573 36.854 12.8573 36.5062 13.2052C36.1583 13.5531 36.1583 14.1172 36.5062 14.465L36.8581 14.8169L34.3377 17.3373L33.4559 16.4556C33.1078 16.1077 32.5439 16.1077 32.196 16.4556C31.8481 16.8034 31.8481 17.3675 32.196 17.7153L33.0779 18.5972L30.5583 21.1168L30.2055 20.764C29.8575 20.4161 29.2936 20.4161 28.9457 20.764C28.5978 21.1119 28.5978 21.676 28.9457 22.0238L29.2985 22.3766L27.5112 24.1638C27.1633 24.5117 27.1633 25.0757 27.5112 25.4235C27.6839 25.5976 27.912 25.6846 28.1399 25.6846ZM31.8169 29.9355L34.3365 27.416L36.8561 29.9356L34.3365 32.4552L31.8169 29.9355ZM43.1553 26.156L45.6756 23.6356L48.1952 26.1552L45.6747 28.6755L43.1553 26.156ZM44.415 29.9355L41.8954 32.4551L39.3758 29.9355L41.8954 27.4159L44.415 29.9355ZM41.8954 24.8962L39.3758 22.3766L41.8962 19.8562L44.4158 22.3758L41.8954 24.8962ZM40.6355 26.156L38.1159 28.6756L35.5963 26.156L38.1159 23.6364L40.6355 26.156ZM38.1159 36.2345L35.5963 33.7149L38.1159 31.1953L40.6355 33.7149L38.1159 36.2345ZM45.6747 36.2345L43.1551 33.7149L45.6747 31.1953L48.1943 33.7149L45.6747 36.2345ZM51.9746 29.9346L49.4543 32.455L46.9347 29.9354L49.4552 27.415L51.9746 29.9346ZM51.9746 22.3758L49.455 24.8954L46.9354 22.3758L49.455 19.8562L51.9746 22.3758ZM45.6757 16.0768L48.1953 18.5964L45.6757 21.116L43.1561 18.5964L45.6757 16.0768ZM38.1168 16.0768L40.6364 18.5964L38.1159 21.1167L35.5963 18.5971L38.1168 16.0768ZM34.3365 19.8571L36.8561 22.3767L34.3365 24.8963L31.8169 22.3767L34.3365 19.8571Z" fill="#D6AD60"/>
<path d="M47.9772 43.6934C46.0738 43.6934 44.2842 44.4346 42.9381 45.7806C41.5921 47.1266 40.8508 48.9161 40.8508 50.8196C40.8508 52.7231 41.5921 54.5127 42.9381 55.8587C44.2842 57.2046 46.0737 57.9459 47.9772 57.9459C49.8807 57.9459 51.6703 57.2046 53.0163 55.8587C54.3622 54.5127 55.1035 52.7232 55.1035 50.8196C55.1035 48.9161 54.3622 47.1266 53.0163 45.7806C51.6703 44.4346 49.8807 43.6934 47.9772 43.6934ZM44.1979 47.0405C44.9231 46.3155 45.8202 45.8259 46.7969 45.6067C46.5763 46.5851 46.0848 47.4842 45.3628 48.2061C44.6412 48.9277 43.7424 49.419 42.7641 49.6394C42.9832 48.6627 43.4728 47.7655 44.1979 47.0405ZM42.6727 51.468C44.1641 51.2389 45.5423 50.5463 46.6226 49.4659C47.7036 48.3851 48.3963 47.0066 48.6255 45.5153C49.8075 45.6573 50.9014 46.1854 51.7563 47.0404C52.6114 47.8953 53.1394 48.9892 53.2816 50.1712C51.7913 50.3998 50.4129 51.0928 49.3312 52.1745C48.25 53.2558 47.5574 54.6339 47.3289 56.1239C46.147 55.9817 45.053 55.4538 44.1981 54.5988C43.3429 53.744 42.8148 52.65 42.6727 51.468ZM51.7563 54.5989C51.0313 55.3241 50.134 55.8137 49.1572 56.0327C49.3773 55.0554 49.8688 54.1566 50.5911 53.4343C51.3136 52.7117 52.2126 52.22 53.1901 51.9997C52.971 52.9766 52.4814 53.8738 51.7563 54.5989Z" fill="#D6AD60"/>
</g>
<defs>
<clipPath id="clip0_777_1115">
<rect width="60" height="60" fill="white"/>
</clipPath>
</defs>
</svg>
