<svg width="22" height="16" viewBox="0 0 22 16" fill="none" xmlns="http://www.w3.org/2000/svg">
<path d="M0.332031 1.33333C0.332031 0.979711 0.472507 0.640573 0.722556 0.390525C0.972604 0.140476 1.31174 0 1.66536 0H20.332C20.6857 0 21.0248 0.140476 21.2748 0.390525C21.5249 0.640573 21.6654 0.979711 21.6654 1.33333C21.6654 1.68696 21.5249 2.02609 21.2748 2.27614C21.0248 2.52619 20.6857 2.66667 20.332 2.66667H1.66536C1.31174 2.66667 0.972604 2.52619 0.722556 2.27614C0.472507 2.02609 0.332031 1.68696 0.332031 1.33333ZM0.332031 8C0.332031 7.64638 0.472507 7.30724 0.722556 7.05719C0.972604 6.80714 1.31174 6.66667 1.66536 6.66667H20.332C20.6857 6.66667 21.0248 6.80714 21.2748 7.05719C21.5249 7.30724 21.6654 7.64638 21.6654 8C21.6654 8.35362 21.5249 8.69276 21.2748 8.94281C21.0248 9.19286 20.6857 9.33333 20.332 9.33333H1.66536C1.31174 9.33333 0.972604 9.19286 0.722556 8.94281C0.472507 8.69276 0.332031 8.35362 0.332031 8ZM0.332031 14.6667C0.332031 14.313 0.472507 13.9739 0.722556 13.7239C0.972604 13.4738 1.31174 13.3333 1.66536 13.3333H20.332C20.6857 13.3333 21.0248 13.4738 21.2748 13.7239C21.5249 13.9739 21.6654 14.313 21.6654 14.6667C21.6654 15.0203 21.5249 15.3594 21.2748 15.6095C21.0248 15.8595 20.6857 16 20.332 16H1.66536C1.31174 16 0.972604 15.8595 0.722556 15.6095C0.472507 15.3594 0.332031 15.0203 0.332031 14.6667Z" fill="white"/>
</svg>
