<svg width="60" height="60" viewBox="0 0 60 60" fill="none" xmlns="http://www.w3.org/2000/svg">
<path d="M49.425 37.0754H23.8519C23.3516 37.0754 22.9463 36.6701 22.9463 36.1699V13.973C22.9463 13.4727 23.3516 13.0674 23.8519 13.0674H49.425C49.9253 13.0674 50.3306 13.4727 50.3306 13.973V36.1699C50.3306 36.6701 49.9253 37.0754 49.425 37.0754ZM24.7574 35.2643H48.5194V14.8785H24.7574V35.2643Z" fill="#D6AD60"/>
<path d="M49.0029 14.8778H24.2739C22.3523 14.8778 20.7891 13.3147 20.7891 11.393C20.7891 9.47144 22.3523 7.9082 24.2739 7.9082H49.0029C50.9245 7.9082 52.4878 9.47144 52.4878 11.393C52.4878 13.3147 50.9244 14.8778 49.0029 14.8778ZM24.2739 9.71936C23.3511 9.71936 22.6002 10.47 22.6002 11.393C22.6002 12.3159 23.3509 13.0666 24.2739 13.0666H49.0029C49.9258 13.0666 50.6765 12.316 50.6765 11.393C50.6765 10.4701 49.9258 9.71936 49.0029 9.71936H24.2739Z" fill="#D6AD60"/>
<path d="M44.4073 9.71964H28.8694C28.5337 9.71964 28.2252 9.53352 28.0685 9.23676C27.9118 8.93964 27.9323 8.58024 28.122 8.3028L31.4776 3.39444C31.6463 3.1476 31.9261 3 32.2251 3H41.0515C41.3503 3 41.6302 3.1476 41.7989 3.39444L45.1546 8.3028C45.3442 8.58012 45.3648 8.93964 45.2081 9.23676C45.0515 9.53364 44.743 9.71964 44.4073 9.71964ZM30.5855 7.90848H42.6912L40.5737 4.8114H32.703L30.5855 7.90848Z" fill="#D6AD60"/>
<path d="M44.996 44.0778H28.2805C27.7802 44.0778 27.375 43.6724 27.375 43.1722V36.1693C27.375 35.669 27.7804 35.2637 28.2805 35.2637H44.996C45.4963 35.2637 45.9016 35.669 45.9016 36.1693V43.1722C45.9016 43.6723 45.4963 44.0778 44.996 44.0778ZM29.1862 42.2665H44.0904V37.0748H29.1862V42.2665Z" fill="#D6AD60"/>
<path d="M38.8061 48.9549H34.4709C34.1726 48.9549 33.894 48.8082 33.7249 48.5626L30.3692 43.6854C30.1785 43.4084 30.1573 43.0483 30.3137 42.7508C30.4704 42.453 30.7789 42.2666 31.1153 42.2666H42.1619C42.4982 42.2666 42.8068 42.4531 42.9635 42.7508C43.1198 43.0483 43.0986 43.4084 42.9079 43.6854L39.5521 48.5628C39.383 48.8082 39.1043 48.9549 38.8061 48.9549ZM34.947 47.1438H38.3299L40.4393 44.0779H32.8375L34.947 47.1438Z" fill="#D6AD60"/>
<path d="M36.6383 26.7584C34.2774 26.7584 32.3564 24.8375 32.3564 22.4762C32.3564 20.1152 34.2773 18.1943 36.6383 18.1943C38.9995 18.1943 40.9205 20.1152 40.9205 22.4762C40.9205 24.8375 38.9996 26.7584 36.6383 26.7584ZM36.6383 20.0056C35.276 20.0056 34.1677 21.1138 34.1677 22.4762C34.1677 23.8388 35.276 24.9471 36.6383 24.9471C38.0009 24.9471 39.1092 23.8389 39.1092 22.4762C39.1093 21.1138 38.0009 20.0056 36.6383 20.0056Z" fill="#D6AD60"/>
<path d="M51.5822 57.0002C51.0819 57.0002 50.6767 56.5949 50.6767 56.0946V38.638L48.7958 36.8207C48.4361 36.4734 48.4265 35.8999 48.7739 35.54C49.1216 35.1799 49.6947 35.1708 50.0545 35.5182L52.2116 37.6025C52.3883 37.7729 52.488 38.0082 52.488 38.2537V56.0945C52.4879 56.5949 52.0824 57.0002 51.5822 57.0002Z" fill="#D6AD60"/>
<path d="M21.6947 56.9998C21.1944 56.9998 20.7891 56.5944 20.7891 56.0942V38.2534C20.7891 38.0078 20.8888 37.7726 21.0654 37.6022L23.2227 35.5179C23.5828 35.1708 24.1561 35.1801 24.5032 35.5397C24.8505 35.8995 24.841 36.473 24.4812 36.8204L22.6003 38.6376V56.0943C22.6002 56.5944 22.1949 56.9998 21.6947 56.9998Z" fill="#D6AD60"/>
<path d="M53.6756 56.9996H6.32459C5.8243 56.9996 5.41895 56.5943 5.41895 56.094C5.41895 55.5937 5.8243 55.1885 6.32459 55.1885H53.6757C54.176 55.1885 54.5814 55.5938 54.5814 56.094C54.5813 56.5943 54.1759 56.9996 53.6756 56.9996Z" fill="#D6AD60"/>
<path d="M13.1007 45.2268H7.50769C7.00741 45.2268 6.60205 44.8214 6.60205 44.3212V30.0448C6.60205 25.9231 9.95497 22.5703 14.0765 22.5703H23.8514C24.3517 22.5703 24.7571 22.9757 24.7571 23.476V29.0688C24.7571 29.569 24.3517 29.9743 23.8514 29.9743H14.0765C14.0383 29.9743 14.0061 30.0065 14.0061 30.0448V44.3212C14.0062 44.8214 13.6007 45.2268 13.1007 45.2268ZM8.41345 43.4156H12.195V30.0449C12.195 29.0074 13.0391 28.1633 14.0766 28.1633H22.9458V24.3817H14.0766C10.9541 24.3817 8.41345 26.9224 8.41345 30.0449V43.4156Z" fill="#D6AD60"/>
<path d="M14.2839 49.6743H6.32458C5.8243 49.6743 5.41895 49.2689 5.41895 48.7686V44.3215C5.41895 43.8214 5.8243 43.416 6.32458 43.416H14.2841C14.7842 43.416 15.1896 43.8214 15.1896 44.3215V48.7686C15.1896 49.2689 14.7841 49.6743 14.2839 49.6743ZM7.23023 47.8631H13.3784V45.2273H7.23023V47.8631Z" fill="#D6AD60"/>
<path d="M11.6651 53.0508H8.94373C8.55313 53.0508 8.20693 52.8007 8.08405 52.4299L6.96553 49.0537C6.87385 48.7777 6.92053 48.4746 7.09117 48.2386C7.26133 48.003 7.53433 47.8633 7.82521 47.8633H12.7835C13.0743 47.8633 13.3474 48.003 13.5175 48.2386C13.6881 48.4746 13.7347 48.7778 13.6432 49.0537L12.525 52.4299C12.402 52.8007 12.0557 53.0508 11.6651 53.0508ZM9.59785 51.2395H11.0111L11.5293 49.6746H9.07921L9.59785 51.2395Z" fill="#D6AD60"/>
<path d="M41.9112 31.9059H23.8514C23.3512 31.9059 22.9458 31.5005 22.9458 31.0002C22.9458 30.5 23.3512 30.0947 23.8514 30.0947H41.9112C42.4115 30.0947 42.8168 30.5001 42.8168 31.0002C42.8168 31.5005 42.4114 31.9059 41.9112 31.9059Z" fill="#D6AD60"/>
<path d="M21.6953 43.3005C21.3652 43.3005 21.0473 43.1194 20.8874 42.8048C20.6606 42.3591 20.8385 41.8139 21.2842 41.5872L27.8701 38.2392C28.3168 38.0124 28.8609 38.1902 29.0877 38.6361C29.3144 39.0818 29.1364 39.627 28.6907 39.8537L22.105 43.2017C21.9734 43.2687 21.8333 43.3005 21.6953 43.3005Z" fill="#D6AD60"/>
<path d="M51.5816 43.3005C51.4436 43.3005 51.3034 43.2686 51.1719 43.2017L44.5858 39.8537C44.1401 39.6271 43.9621 39.0818 44.1889 38.6361C44.416 38.1901 44.9605 38.0125 45.4065 38.2393L51.9926 41.5873C52.4383 41.8139 52.6164 42.3591 52.3896 42.8048C52.2296 43.1194 51.9116 43.3005 51.5816 43.3005Z" fill="#D6AD60"/>
</svg>
