<svg width="44" height="44" viewBox="0 0 44 44" fill="none" xmlns="http://www.w3.org/2000/svg">
<rect width="44" height="44" rx="22" fill="url(#paint0_linear_569_6805)"/>
<path d="M11.5507 21.8684C11.5502 23.7168 12.0332 25.5216 12.9516 27.1125L11.4629 32.5478L17.0253 31.0893C18.5638 31.9269 20.2876 32.3657 22.0393 32.3658H22.0439C27.8265 32.3658 32.5338 27.6603 32.5362 21.8766C32.5374 19.074 31.4469 16.4386 29.4657 14.4559C27.4849 12.4733 24.8504 11.3809 22.0434 11.3796C16.2601 11.3796 11.5532 16.0849 11.5508 21.8684" fill="url(#paint1_linear_569_6805)"/>
<path d="M11.1772 21.8649C11.1766 23.7799 11.6769 25.6493 12.628 27.2971L11.0859 32.9273L16.8478 31.4165C18.4354 32.2821 20.2228 32.7385 22.0417 32.7392H22.0464C28.0365 32.7392 32.9128 27.8644 32.9154 21.8736C32.9164 18.9703 31.7867 16.2402 29.7348 14.1864C27.6825 12.1329 24.9539 11.0012 22.0464 11C16.0552 11 11.1796 15.8741 11.1772 21.8649ZM14.6085 27.0133L14.3934 26.6718C13.489 25.2337 13.0116 23.572 13.0123 21.8656C13.0143 16.8862 17.0667 12.835 22.0498 12.835C24.463 12.8361 26.7308 13.7768 28.4366 15.4836C30.1423 17.1905 31.0809 19.4596 31.0803 21.8729C31.0781 26.8524 27.0255 30.904 22.0464 30.904H22.0428C20.4215 30.9032 18.8315 30.4678 17.4448 29.645L17.1148 29.4493L13.6956 30.3458L14.6085 27.0133Z" fill="url(#paint2_linear_569_6805)"/>
<path d="M19.3297 17.3227C19.1263 16.8705 18.9121 16.8614 18.7187 16.8534C18.5602 16.8466 18.3791 16.8471 18.1982 16.8471C18.017 16.8471 17.7228 16.9152 17.474 17.1868C17.225 17.4587 16.5234 18.1156 16.5234 19.4517C16.5234 20.7879 17.4966 22.0792 17.6323 22.2606C17.7681 22.4416 19.5111 25.2712 22.2715 26.3598C24.5656 27.2645 25.0325 27.0845 25.5304 27.0392C26.0284 26.994 27.1372 26.3824 27.3635 25.7482C27.5899 25.1142 27.5899 24.5707 27.522 24.4571C27.4541 24.3439 27.273 24.276 27.0014 24.1402C26.7297 24.0044 25.3946 23.3473 25.1456 23.2567C24.8967 23.1661 24.7156 23.121 24.5345 23.3929C24.3534 23.6644 23.8333 24.276 23.6748 24.4571C23.5165 24.6386 23.3579 24.6612 23.0864 24.5254C22.8147 24.3891 21.94 24.1027 20.9024 23.1776C20.095 22.4577 19.55 21.5688 19.3915 21.2968C19.2331 21.0253 19.3746 20.8781 19.5107 20.7428C19.6328 20.6211 19.7824 20.4257 19.9183 20.2672C20.0538 20.1086 20.0989 19.9954 20.1895 19.8143C20.2802 19.633 20.2348 19.4744 20.167 19.3386C20.0989 19.2027 19.5712 17.8596 19.3297 17.3227Z" fill="white"/>
<defs>
<linearGradient id="paint0_linear_569_6805" x1="2200" y1="4400" x2="2200" y2="0" gradientUnits="userSpaceOnUse">
<stop stop-color="#1FAF38"/>
<stop offset="1" stop-color="#60D669"/>
</linearGradient>
<linearGradient id="paint1_linear_569_6805" x1="1065.13" y1="2128.2" x2="1065.13" y2="11.3796" gradientUnits="userSpaceOnUse">
<stop stop-color="#1FAF38"/>
<stop offset="1" stop-color="#60D669"/>
</linearGradient>
<linearGradient id="paint2_linear_569_6805" x1="1102.56" y1="2203.73" x2="1102.56" y2="11" gradientUnits="userSpaceOnUse">
<stop stop-color="#F9F9F9"/>
<stop offset="1" stop-color="white"/>
</linearGradient>
</defs>
</svg>
