<svg width="60" height="60" viewBox="0 0 60 60" fill="none" xmlns="http://www.w3.org/2000/svg">
<path d="M56.7576 45.7468C56.0042 44.9937 55.0029 44.5789 53.9373 44.5789C53.9368 44.5789 53.9361 44.5789 53.9357 44.5789H53.8432C52.826 44.5793 51.924 45.0811 51.3709 45.8498L45.4338 39.9128L44.2256 30.8511C43.693 26.8569 40.2526 23.8447 36.2202 23.8447C35.1125 23.8447 34.2116 24.7458 34.2116 25.8533V27.9267C34.2116 30.2489 32.3223 32.1384 29.9998 32.1384C27.6775 32.1384 25.7881 30.249 25.7881 27.9267V25.8533C25.7881 24.7457 24.8871 23.8447 23.7767 23.8447C19.747 23.8447 16.3066 26.8569 15.7742 30.8511L14.5659 39.9128L8.63035 45.8483C8.53438 45.7152 8.42703 45.5889 8.30867 45.4705C7.73352 44.8955 6.9691 44.5789 6.155 44.5789H6.15441C3.90395 44.5794 2.07324 46.4107 2.07324 48.6611C2.07324 50.8711 3.83902 52.6753 6.03371 52.74C5.49898 53.4916 5.1834 54.4092 5.1834 55.3997C5.18352 57.9366 7.2473 60.0002 9.78395 60.0002H50.216C52.7527 60.0002 54.8164 57.9366 54.8164 55.3998C54.8164 54.4093 54.5007 53.4919 53.9662 52.7402C56.1607 52.6762 57.9266 50.8648 57.9266 48.6458V48.5678C57.9266 47.5021 57.5115 46.5002 56.7576 45.7468ZM38.3996 42.0834L38.7348 39.235L39.0447 40.7848C39.324 42.1816 40.0043 43.4524 41.0116 44.4599L47.3511 50.7994H40.0893L38.5682 44.7146C38.3524 43.8518 38.2957 42.9666 38.3996 42.0834ZM23.7796 25.7885C23.8154 25.7885 23.8445 25.8176 23.8445 25.8533V27.9267C23.8445 31.3208 26.6059 34.0822 30 34.0822C33.3941 34.0822 36.1555 31.3208 36.1555 27.9267V25.8533C36.1555 25.8176 36.1847 25.7885 36.223 25.7885C36.9542 25.7885 37.6595 25.9205 38.3156 26.1608L36.4691 41.8562C36.3373 42.9739 36.4092 44.0944 36.6822 45.186L38.0856 50.7993H21.9144L23.3177 45.186C23.5906 44.0941 23.6625 42.9738 23.531 41.8562L21.6845 26.1612C22.3412 25.9206 23.0472 25.7885 23.7796 25.7885ZM21.2653 39.2348L21.6004 42.0833C21.7044 42.9666 21.6477 43.8518 21.4319 44.7146L19.9107 50.7994H12.6487L18.9882 44.4599C19.9955 43.4525 20.6757 42.1818 20.9551 40.7848L21.2653 39.2348ZM6.15547 50.7994C4.97645 50.7994 4.01727 49.8402 4.01727 48.6612C4.01727 47.4824 4.97621 46.5232 6.15559 46.523C6.44973 46.523 6.72629 46.6373 6.9343 46.8454C7.14242 47.0534 7.25703 47.3299 7.25703 47.6244C7.25703 48.0176 7.49375 48.3718 7.85703 48.5223C8.22031 48.6728 8.63832 48.5897 8.91617 48.3116L16.1732 41.0545C16.3242 40.9036 16.4213 40.7072 16.4495 40.4958L17.7011 31.108C17.9098 29.5423 18.708 28.1766 19.8518 27.2204L20.531 32.9939L19.0491 40.4034C18.8454 41.4227 18.3489 42.3502 17.6139 43.0853L9.89996 50.7993H9.78395H6.15547V50.7994ZM25.9179 58.0564H9.78395C8.3191 58.0564 7.1273 56.8648 7.1273 55.3998C7.1273 53.9348 8.31898 52.7432 9.78395 52.7432H16.5874V53.2181C16.5874 54.6565 17.568 55.879 18.972 56.1909L25.9177 57.7345V58.0564H25.9179ZM25.9179 55.7432L19.3938 54.2933C18.8859 54.1805 18.5313 53.7383 18.5313 53.218V52.7432H25.9179V55.7432ZM50.216 58.0564H27.8618V52.7433H50.2161C51.6808 52.7434 52.8725 53.9351 52.8725 55.3999C52.8725 56.8646 51.6808 58.0564 50.216 58.0564ZM55.9827 48.6458C55.9827 49.8333 55.0243 50.7994 53.8464 50.7994H50.1002L42.3862 43.0853C41.6511 42.3502 41.1547 41.4226 40.9509 40.4034L39.4689 32.9938L40.1482 27.2203C41.2918 28.1764 42.0901 29.5423 42.2988 31.1081L43.5505 40.4959C43.5787 40.7074 43.6757 40.9037 43.8267 41.0546L51.0838 48.3117C51.3618 48.5897 51.7797 48.6728 52.143 48.5224C52.5063 48.372 52.743 48.0176 52.743 47.6245C52.743 47.0173 53.237 46.5232 53.8443 46.523H53.9369C53.9372 46.523 53.9374 46.523 53.9377 46.523C54.4838 46.523 54.9973 46.7357 55.3836 47.1217C55.7698 47.5079 55.9828 48.0217 55.9828 48.568V48.6458H55.9827Z" fill="#D6AD60"/>
<path d="M33.9682 5.04152C34.0437 4.72922 34.082 4.40836 34.082 4.08199C34.082 1.83129 32.2507 0 29.9999 0C27.7491 0 25.9178 1.83129 25.9178 4.08211C25.9178 4.40871 25.9567 4.72934 26.0321 5.04129C22.9028 6.53051 20.7341 9.72258 20.7341 13.4126V14.365C20.7341 14.8993 21.1656 15.3336 21.7002 15.3369C21.7634 15.3368 22.1633 15.3368 22.8075 15.2952V16.5229C22.8075 20.4887 26.0339 23.7151 29.9998 23.7151C33.9657 23.7151 37.1921 20.4887 37.1921 16.5229V15.3129C37.544 15.3819 37.9112 15.4214 38.2936 15.4214C38.8305 15.4214 39.2656 14.9863 39.2656 14.4495V13.4127C39.2656 9.72281 37.0971 6.53074 33.9682 5.04152ZM29.9999 1.94379C31.1789 1.94379 32.1381 2.90297 32.1381 4.08199C32.1381 4.18711 32.1283 4.29047 32.1134 4.39289C31.4339 4.23363 30.7272 4.1468 29.9999 4.1468C29.2728 4.1468 28.5659 4.23363 27.8866 4.39277C27.8718 4.29059 27.8617 4.18723 27.8617 4.08199C27.8617 2.90309 28.8209 1.94379 29.9999 1.94379ZM35.2483 16.5227C35.2483 19.4167 32.8939 21.7711 29.9999 21.7711C27.106 21.7711 24.7516 19.4167 24.7516 16.5227V15.097C26.9352 14.7967 29.9829 14.1199 32.8595 12.5933C33.3583 13.1688 34.1752 13.9761 35.2484 14.5811L35.2483 16.5227ZM33.9173 10.7978C33.6303 10.3699 33.0593 10.2401 32.6155 10.5023C28.907 12.6939 24.5716 13.224 22.6783 13.3521C22.7111 9.34266 25.9828 6.0907 29.9999 6.0907C34.0159 6.0907 37.2871 9.3409 37.3214 13.3491C35.3022 12.8183 33.9331 10.821 33.9173 10.7978Z" fill="#D6AD60"/>
</svg>
